<?xml version="1.0" encoding="utf-8"?>
<svg width="53px" height="53px" viewBox="0 0 53 53" version="1.1" xmlns:xlink="http://www.w3.org/1999/xlink" xmlns="http://www.w3.org/2000/svg">
  <g id="Group-21">
    <path d="M26.5 53C41.1355 53 53 41.1355 53 26.5C53 11.8645 41.1355 0 26.5 0C11.8645 0 0 11.8645 0 26.5C0 41.1355 11.8645 53 26.5 53Z" id="Oval" fill="#FFFFFF" fill-rule="evenodd" stroke="none" />
    <g id="bathtub" transform="translate(10 11)">
      <path d="M9.14286 27.5247L8.95202 28.479L8.52093 30.7658C8.38667 31.4782 7.69484 32 6.88459 32L5.56704 32C5.01721 32 4.57143 31.6026 4.57143 31.1123C4.57143 30.6221 5.01714 30.2247 5.56704 30.2247L6.34868 30.2247C6.51058 30.2247 6.64885 30.1205 6.67584 29.9782L6.96087 28.479L7.16827 27.4286L9.14286 27.5247Z" id="Path" fill="#CC9E75" stroke="none" />
      <path d="M26.8145 28.1402L27.1059 29.7837C27.1336 29.9397 27.2749 30.0539 27.4404 30.0539L28.2394 30.0539C28.8014 30.0539 29.2571 30.4895 29.2571 31.0269C29.2571 31.5643 28.8015 32 28.2394 32L26.8925 32C26.0642 32 25.357 31.428 25.2198 30.647L24.7791 28.1402L24.6857 27.4286L26.7041 27.5208L26.8145 28.1402Z" id="Path" fill="#CC9E75" stroke="none" />
      <path d="M32.3808 18.2857C32.0862 18.2857 31.8475 18.0545 31.8475 17.7692L31.8475 1.894C31.8475 1.41927 31.4488 1.03311 30.9587 1.03311L28.4698 1.03311C27.9796 1.03311 27.5809 1.41933 27.5809 1.894L27.5809 4.20124C27.5809 4.48651 27.3421 4.02908 27.0476 4.02908C26.7531 4.02908 26.5143 4.48657 26.5143 4.20124L26.5143 1.894C26.5143 0.84966 27.3916 0 28.4698 0L30.9587 0C32.037 0 32.9143 0.84966 32.9143 1.894L32.9143 17.7692C32.9142 18.0545 32.6754 18.2857 32.3808 18.2857L32.3808 18.2857Z" id="Path" fill="#D3D3D3" stroke="none" />
      <path d="M1.82857 24.1083C1.82857 26.4469 3.64178 28.3429 5.87844 28.3429L27.9501 28.3429C30.1868 28.3429 32 26.4469 32 24.1083L32 18.2857L1.82857 18.2857L1.82857 24.1083Z" id="Path" fill="#BDE0F2" stroke="none" />
      <path d="M32 20.1143L32 24.3931C32 26.5747 30.0899 28.3429 27.7333 28.3429L25.6 28.3429C27.9566 28.3429 29.8667 26.5747 29.8667 24.3931L29.8667 20.1143L32 20.1143Z" id="Path" fill="#7FC6DD" stroke="none" />
      <path d="M32.6374 19.2L1.19114 19.2C0.533262 19.2 0 18.7906 0 18.2857C0 17.7807 0.533262 17.3714 1.19114 17.3714L32.6374 17.3714C33.2953 17.3714 33.8286 17.7807 33.8286 18.2857C33.8286 18.7906 33.2953 19.2 32.6374 19.2Z" id="Path" fill="#83C8DB" stroke="none" />
      <path d="M33.8286 18.2857C33.8286 18.538 33.6777 18.7669 33.4336 18.9325C33.1895 19.0976 32.853 19.2 32.4812 19.2L30.1714 19.2C30.5433 19.2 30.8798 19.0976 31.1238 18.9325C31.3679 18.7669 31.5188 18.538 31.5188 18.2857C31.5188 17.781 30.9151 17.3714 30.1714 17.3714L32.4812 17.3714C33.2249 17.3714 33.8286 17.781 33.8286 18.2857Z" id="Path" fill="#56A9B7" stroke="none" />
      <path d="M28.3429 7.31429L24.6857 7.31429L24.6857 5.64823C24.6857 4.54859 25.5044 3.65714 26.5142 3.65714C27.5241 3.65714 28.3428 4.54859 28.3428 5.64823L28.3428 7.31429L28.3429 7.31429Z" id="Path" fill="#B7B7B7" stroke="none" />
      <path d="M29.2571 5.64826L29.2571 7.31429L27.174 7.31429L27.174 5.64826C27.174 5.0981 26.9837 4.60072 26.6754 4.24067C26.6247 4.18135 26.5712 4.12605 26.5143 4.07485C26.8018 3.81231 27.1635 3.65714 27.5559 3.65714C28.0253 3.65714 28.451 3.87984 28.7586 4.24067C29.0669 4.60072 29.2571 5.0981 29.2571 5.64826L29.2571 5.64826Z" id="Path" fill="#A0A0A0" stroke="none" />
      <path d="M4.57217 0.914286C4.5112 0.914286 8.22857 0.914286 8.22857 0.914286L8.22857 23.1619C8.22857 24.0035 7.41003 24.6857 6.40037 24.6857C5.39072 24.6857 4.57217 24.0035 4.57217 23.1619L4.57217 0.914286Z" id="Path" fill="#FCD87E" stroke="none" />
      <path d="M7.31429 0.914286L10.9714 0.914286L10.9714 23.1619C10.9714 24.0035 10.1527 24.6857 9.14286 24.6857C8.133 24.6857 7.31429 24.0035 7.31429 23.1619L7.31429 0.914286Z" id="Path" fill="#FFFFFF" stroke="none" />
      <path d="M10.9714 0.914286L14.6286 0.914286L14.6286 23.1619C14.6286 24.0035 13.8099 24.6857 12.8 24.6857C11.7901 24.6857 10.9714 24.0035 10.9714 23.1619L10.9714 0.914286Z" id="Path" fill="#FCD87E" stroke="none" />
      <path d="M13.7143 0.914286L17.3714 0.914286L17.3714 23.1619C17.3714 24.0035 16.5527 24.6857 15.5429 24.6857C14.533 24.6857 13.7143 24.0035 13.7143 23.1619L13.7143 0.914286Z" id="Path" fill="#FFFFFF" stroke="none" />
      <path d="M16.4571 0.914286L20.1143 0.914286L20.1143 23.1619C20.1143 24.0035 19.2956 24.6857 18.2857 24.6857C17.2759 24.6857 16.4571 24.0035 16.4571 23.1619L16.4571 0.914286Z" id="Path" fill="#FCD87E" stroke="none" />
      <g id="Group" transform="translate(24.685715 10.057143)">
        <path d="M0.457125 1.80283C0.2046 1.80283 0 1.58664 0 1.31995L0 0.482881C0 0.21619 0.204659 0 0.457125 0C0.709591 0 0.91425 0.21619 0.91425 0.482881L0.91425 1.31989C0.914309 1.58658 0.70965 1.80283 0.457125 1.80283Z" id="Path" fill="#56A9B7" stroke="none" />
        <path d="M2.28574 1.80283C2.03322 1.80283 1.82862 1.58664 1.82862 1.31995L1.82862 0.482881C1.82862 0.21619 2.03328 0 2.28574 0C2.53821 0 2.74287 0.21619 2.74287 0.482881L2.74287 1.31989C2.74287 1.58658 2.53827 1.80283 2.28574 1.80283Z" id="Path" fill="#56A9B7" stroke="none" />
        <path d="M4.1143 1.80283C3.86178 1.80283 3.65718 1.58664 3.65718 1.31995L3.65718 0.482881C3.65718 0.21619 3.86184 0 4.1143 0C4.36677 0 4.57143 0.21619 4.57143 0.482881L4.57143 1.31989C4.57149 1.58658 4.36683 1.80283 4.1143 1.80283Z" id="Path" fill="#56A9B7" stroke="none" />
        <path d="M0.457125 4.57143C0.2046 4.57143 0 4.35524 0 4.08855L0 3.25154C0 2.98485 0.204659 2.76866 0.457125 2.76866C0.709591 2.76866 0.91425 2.98485 0.91425 3.25154L0.91425 4.08855C0.914309 4.35524 0.70965 4.57143 0.457125 4.57143Z" id="Path" fill="#56A9B7" stroke="none" />
        <path d="M2.28574 4.57143C2.03322 4.57143 1.82862 4.35524 1.82862 4.08855L1.82862 3.25154C1.82862 2.98485 2.03328 2.76866 2.28574 2.76866C2.53821 2.76866 2.74287 2.98485 2.74287 3.25154L2.74287 4.08855C2.74287 4.35524 2.53827 4.57143 2.28574 4.57143Z" id="Path" fill="#56A9B7" stroke="none" />
        <path d="M4.1143 4.57143C3.86178 4.57143 3.65718 4.35524 3.65718 4.08855L3.65718 3.25154C3.65718 2.98485 3.86184 2.76866 4.1143 2.76866C4.36677 2.76866 4.57143 2.98485 4.57143 3.25154L4.57143 4.08855C4.57149 4.35524 4.36683 4.57143 4.1143 4.57143Z" id="Path" fill="#56A9B7" stroke="none" />
      </g>
      <path d="M22.7428 0C22.3631 0 22.0316 0.178357 21.8534 0.44237L3.7037 0.44237C3.51799 0.211051 3.20794 0.0589751 2.85716 0.0589751C2.28998 0.0589751 1.82857 0.455883 1.82857 0.943773C1.82857 1.43166 2.28998 1.82857 2.85716 1.82857C3.26452 1.82857 3.61623 1.6233 3.78271 1.32717L21.8534 1.32717C22.0316 1.59118 22.3631 1.76954 22.7428 1.76954C23.31 1.76954 23.7714 1.37263 23.7714 0.884741C23.7714 0.396851 23.31 1.0171e-16 22.7428 0Z" id="Path" fill="#CC9E75" stroke="none" />
      <path d="M28.515 8.22857L25.4278 8.22857C25.018 8.22857 24.6857 7.81925 24.6857 7.31429C24.6857 6.80932 25.018 6.4 25.4278 6.4L28.515 6.4C28.9249 6.4 29.2571 6.80932 29.2571 7.31429C29.2571 7.81918 28.9249 8.22857 28.515 8.22857Z" id="Path" fill="#A5A5A5" stroke="none" />
      <path d="M29.2571 7.31425C29.2571 7.56658 29.1668 7.79477 29.021 7.96084C28.8751 8.12612 28.6731 8.22857 28.4504 8.22857L26.5143 8.22857C26.7369 8.22857 26.939 8.12619 27.0848 7.96084C27.2307 7.79484 27.321 7.56658 27.321 7.31425C27.321 6.80959 26.9596 6.4 26.5143 6.4L28.4504 6.4C28.8957 6.4 29.2571 6.80959 29.2571 7.31425L29.2571 7.31425Z" id="Path" fill="#8E8E8E" stroke="none" />
    </g>
  </g>
</svg>