<?xml version="1.0" encoding="utf-8"?>
<svg width="40px" height="40px" viewBox="0 0 40 40" version="1.1" xmlns:xlink="http://www.w3.org/1999/xlink" xmlns="http://www.w3.org/2000/svg">
  <g id="Group-23">
    <g id="Group-12">
      <path d="M20 40C31.0457 40 40 31.0457 40 20C40 8.9543 31.0457 0 20 0C8.9543 0 0 8.9543 0 20C0 31.0457 8.9543 40 20 40Z" id="Oval" fill="#D8D8D8" fill-rule="evenodd" stroke="none" />
      <path d="M20 40C31.0457 40 40 31.0457 40 20C40 8.9543 31.0457 0 20 0C19.703 0 17.773 8.97158 17.773 20.0173C17.773 24.8013 3.99999 32.6176 4.48158 32.6176C8.14881 37.1225 13.7384 40 20 40Z" id="Oval" fill="#EB9D00" fill-rule="evenodd" stroke="none" />
      <g id="Group-2" transform="translate(4 4)">
        <path d="M16 32C24.8366 32 32 24.8366 32 16C32 7.16344 24.8366 0 16 0C7.16344 0 0 7.16344 0 16C0 24.8366 7.16344 32 16 32Z" id="Oval" fill="#FFB900" fill-rule="evenodd" stroke="none" />
        <g id="Shape-2" transform="translate(5 7)">
          <path d="M20.601 5.16084C20.0292 4.40898 19.4364 3.73826 18.8245 3.14855C18.695 3.60336 18.4771 4.05185 18.1808 4.45578C17.7815 5.0001 17.1072 5.57775 16.4968 5.57775C16.1544 5.57775 15.8568 5.32013 15.8114 4.9665C15.7621 4.58222 16.0293 4.23009 16.4083 4.18004C16.6382 4.14974 17.2192 3.61809 17.4706 2.84141C17.6053 2.42547 17.4417 1.96873 17.0828 1.72541C16.8434 1.56309 16.6015 1.41213 16.3573 1.27258C16.0662 1.10627 15.7153 1.08881 15.4111 1.22885C14.9239 1.45309 14.2032 1.88115 13.824 2.58186C13.4 3.3653 13.1942 4.35973 13.2861 5.17978C13.3288 5.56135 13.0629 5.91844 12.6872 5.96677C12.3044 6.01602 11.9569 5.73915 11.9124 5.35193C11.7081 3.57533 12.474 1.36441 14.0039 0.302002C12.0615 -0.207363 9.97475 -0.0717545 7.78103 0.703959C8.60313 1.32906 8.98388 2.20859 8.92134 3.05013C8.894 3.41863 8.59059 3.69919 8.23198 3.69923C7.7896 3.69923 7.51205 3.33477 7.54116 2.94527C7.5941 2.23613 6.91421 1.65809 6.22507 1.47309C5.99038 1.41011 5.74363 1.41516 5.50911 1.47888C3.89212 1.91803 2.68469 2.83177 1.90602 4.20605C0.990881 5.82116 2.6651 7.89472 4.41677 7.90213C4.79735 7.90375 5.11582 8.21554 5.11707 8.60144C5.11837 8.99011 4.80804 9.30558 4.42504 9.30558C2.83192 9.30558 1.10277 8.14821 0.489282 6.44363C-0.400333 8.29965 -0.0454904 10.0465 1.29914 11.6175C2.10779 13.0909 3.41622 13.6216 5.0464 13.1358C5.66664 12.9509 6.19337 12.526 6.4951 11.9463C6.84644 11.2712 7.05236 10.2349 6.89466 9.81871C6.75764 9.45698 6.93575 9.05103 7.2925 8.91204C7.64942 8.77297 8.04959 8.95366 8.1867 9.31545C8.60997 10.4327 8.07723 12.8156 6.64527 13.9363C7.69725 14.829 9.06775 14.8483 10.4028 14.5539C11.0135 15.3382 12.1201 15.4436 12.7982 15.4529L14.8565 17.7681C14.9878 17.9157 15.1746 18 15.3705 18L16.804 18C17.2881 18 17.5938 17.5612 17.4934 17.1351L17.3055 16.3383C20.7754 15.5987 22.6276 12.4441 21.0902 10.6132C22.5103 8.87384 22.2079 6.76656 20.601 5.16084L20.601 5.16084ZM8.91836 6.98629C7.88095 7.50337 6.48818 7.53701 5.8111 6.58981C5.5868 6.27605 5.65583 5.8373 5.96525 5.60981C6.27473 5.38245 6.70742 5.45236 6.93173 5.76616C7.096 5.99593 7.7274 6.02405 8.32662 5.71761C8.40556 5.67722 9.09383 5.31044 8.95568 4.8687C8.84016 4.49928 9.04184 4.10487 9.40616 3.98768C9.77056 3.87067 10.1595 4.07505 10.275 4.44451C10.4546 5.01883 10.3446 5.60143 9.99404 6.09865C10.2452 6.47469 10.5988 6.747 10.8884 6.61358C11.2365 6.45333 11.6467 6.6095 11.8047 6.96239C11.9627 7.31522 11.8087 7.73117 11.4607 7.89147C10.52 8.32452 9.55174 7.86349 8.91836 6.98629L8.91836 6.98629ZM17.1562 13.0193C17.0891 13.4012 16.7294 13.6551 16.3535 13.5872C15.9772 13.5193 15.7265 13.1549 15.7935 12.7733C16.0362 11.39 12.7512 9.83187 12.0038 11.2319C11.8218 11.5728 11.4018 11.6993 11.0657 11.5149C10.7296 11.3304 10.6047 10.9045 10.7866 10.5637C11.3924 9.42943 12.7323 9.00932 14.2435 9.4586C14.4756 8.73152 14.5029 7.80744 13.8466 7.45429C13.509 7.27264 13.3805 6.84787 13.5596 6.50552C13.7387 6.16316 14.1576 6.03286 14.4953 6.21452C15.7039 6.86476 16.1033 8.36364 15.5127 10.0331C15.5054 10.0537 17.4803 11.1726 17.1562 13.0193L17.1562 13.0193ZM18.8443 8.78806C17.6207 9.02945 17.7062 9.01717 17.6163 9.01717C17.2917 9.01717 17.0021 8.78446 16.9377 8.44934C16.8647 8.06892 17.1097 7.70056 17.4848 7.62652L18.5799 7.41048C18.9549 7.33636 19.3184 7.58486 19.3914 7.96524C19.4645 8.34566 19.2195 8.71407 18.8443 8.78806Z" id="Shape" fill="#FFFFFF" stroke="none" />
        </g>
      </g>
    </g>
  </g>
</svg>