<?xml version="1.0" encoding="utf-8"?>
<svg width="53px" height="53px" viewBox="0 0 53 53" version="1.1" xmlns:xlink="http://www.w3.org/1999/xlink" xmlns="http://www.w3.org/2000/svg">
  <g id="Group-22">
    <path d="M26.5 53C41.1355 53 53 41.1355 53 26.5C53 11.8645 41.1355 0 26.5 0C11.8645 0 0 11.8645 0 26.5C0 41.1355 11.8645 53 26.5 53Z" id="Oval" fill="#FFFFFF" fill-rule="evenodd" stroke="none" />
    <g id="closet" transform="translate(13 11)">
      <path d="M28.25 32L0 32L0 0.25C0 0.111816 0.111816 0 0.25 0L28.25 0C28.3882 0 28.5 0.111816 28.5 0.25L28.5 31.75C28.5 31.8882 28.3882 32 28.25 32Z" id="Path" fill="#FBE1A8" stroke="none" />
      <path d="M28.25 32L26.5657 32L26.5657 0L28.25 0C28.3882 0 28.5 0.111816 28.5 0.25L28.5 31.75C28.5 31.8882 28.3882 32 28.25 32Z" id="Path" fill="#F2CF91" stroke="none" />
      <path d="M1.95215 1.93164L9.25195 1.93164L9.25195 22.7927L1.95215 22.7927L1.95215 1.93164Z" id="Path" fill="#B5FCFF" stroke="none" />
      <path d="M7.32056 1.93164L9.25195 1.93164L9.25195 22.7927L7.32056 22.7927L7.32056 1.93164Z" id="Path" fill="#8CF2FF" stroke="none" />
      <path d="M11.1836 1.93164L26.5479 1.93164L26.5479 22.7927L11.1836 22.7927L11.1836 1.93164Z" id="Path" fill="#AF8164" stroke="none" />
      <path d="M9.25195 1.46289L1.95215 1.46289C1.69336 1.46289 1.4834 1.67261 1.4834 1.93164L1.4834 22.7927C1.4834 23.0515 1.69336 23.2615 1.95215 23.2615L9.25195 23.2615C9.51099 23.2615 9.7207 23.0515 9.7207 22.7927L9.7207 1.93164C9.7207 1.67261 9.51099 1.46289 9.25195 1.46289ZM8.6582 22.324L2.5459 22.324C2.47681 22.324 2.4209 22.2681 2.4209 22.199L2.4209 2.52539C2.4209 2.4563 2.47681 2.40039 2.5459 2.40039L8.6582 2.40039C8.72729 2.40039 8.7832 2.4563 8.7832 2.52539L8.7832 22.199C8.7832 22.2681 8.72729 22.324 8.6582 22.324Z" id="Shape" fill="#EABF7E" stroke="none" />
      <path d="M26.5479 1.46289L11.1836 1.46289C10.9248 1.46289 10.7148 1.67261 10.7148 1.93164L10.7148 22.7927C10.7148 23.0515 10.9248 23.2615 11.1836 23.2615L26.5479 23.2615C26.8066 23.2615 27.0166 23.0515 27.0166 22.7927L27.0166 1.93164C27.0166 1.67261 26.8066 1.46289 26.5479 1.46289ZM25.9541 22.324L11.7773 22.324C11.7083 22.324 11.6523 22.2681 11.6523 22.199L11.6523 2.52539C11.6523 2.4563 11.7083 2.40039 11.7773 2.40039L25.9541 2.40039C26.0232 2.40039 26.0791 2.4563 26.0791 2.52539L26.0791 22.199C26.0791 22.2681 26.0229 22.324 25.9541 22.324Z" id="Shape" fill="#EABF7E" stroke="none" />
      <path d="M15.2158 25.3682L26.5479 25.3682L26.5479 29.8752L15.2158 29.8752L15.2158 25.3682Z" id="Path" fill="#EABF7E" stroke="none" />
      <path d="M1.95215 25.3682L13.2842 25.3682L13.2842 29.8752L1.95215 29.8752L1.95215 25.3682Z" id="Path" fill="#EABF7E" stroke="none" />
      <g id="Group" transform="translate(1.4833984 24.899414)">
        <path d="M25.0645 0L13.7324 0C13.4734 0 13.2637 0.209961 13.2637 0.46875L13.2637 4.97583C13.2637 5.23462 13.4734 5.44458 13.7324 5.44458L25.0645 5.44458C25.3232 5.44458 25.5332 5.23462 25.5332 4.97583L25.5332 0.46875C25.5332 0.209961 25.3232 0 25.0645 0ZM24.4707 4.50708L14.3262 4.50708C14.2571 4.50708 14.2012 4.45117 14.2012 4.38208L14.2012 1.0625C14.2012 0.993408 14.2571 0.9375 14.3262 0.9375L24.4707 0.9375C24.5398 0.9375 24.5957 0.993408 24.5957 1.0625L24.5957 4.38208C24.5957 4.45117 24.5396 4.50708 24.4707 4.50708Z" id="Shape" fill="#AF8164" stroke="none" />
        <path d="M11.8008 0L0.46875 0C0.209961 0 0 0.209961 0 0.46875L0 4.97583C0 5.23462 0.209961 5.44458 0.46875 5.44458L11.8008 5.44458C12.0598 5.44458 12.2695 5.23462 12.2695 4.97583L12.2695 0.46875C12.2695 0.209961 12.0596 0 11.8008 0ZM11.207 4.50708L1.0625 4.50708C0.993408 4.50708 0.9375 4.45117 0.9375 4.38208L0.9375 1.0625C0.9375 0.993408 0.993408 0.9375 1.0625 0.9375L11.207 0.9375C11.2761 0.9375 11.332 0.993408 11.332 1.0625L11.332 4.38208C11.332 4.45117 11.2761 4.50708 11.207 4.50708Z" id="Shape" fill="#AF8164" stroke="none" />
        <path d="M6.39233 2.25366L5.74854 2.25366C5.4895 2.25366 5.27979 2.46338 5.27979 2.72241C5.27979 2.9812 5.4895 3.19116 5.74854 3.19116L6.39233 3.19116C6.65137 3.19116 6.86108 2.9812 6.86108 2.72241C6.86108 2.46338 6.65112 2.25366 6.39233 2.25366Z" id="Path" fill="#AF8164" stroke="none" />
        <path d="M19.7205 2.25366L19.0764 2.25366C18.8176 2.25366 18.6077 2.46338 18.6077 2.72241C18.6077 2.9812 18.8176 3.19116 19.0764 3.19116L19.7205 3.19116C19.9792 3.19116 20.1892 2.9812 20.1892 2.72241C20.1892 2.46338 19.9792 2.25366 19.7205 2.25366Z" id="Path" fill="#AF8164" stroke="none" />
      </g>
      <path d="M21.4548 8.01611L16.0464 8.01611C15.5132 8.01611 15.0806 7.58374 15.0806 7.05029C15.0806 6.51685 15.5129 6.08447 16.0464 6.08447L21.4548 6.08447C21.9883 6.08447 22.4207 6.51685 22.4207 7.05029C22.4207 7.58374 21.9883 8.01611 21.4548 8.01611L21.4548 8.01611Z" id="Path" fill="#6D6670" stroke="none" />
      <path d="M21.4548 6.08447L19.5232 6.08447C20.0566 6.08447 20.489 6.51685 20.489 7.05029C20.489 7.58374 20.0566 8.01611 19.5232 8.01611L21.4548 8.01611C21.9883 8.01611 22.4207 7.58374 22.4207 7.05029C22.4207 6.51685 21.9883 6.08447 21.4548 6.08447Z" id="Path" fill="#5B545F" stroke="none" />
      <path d="M21.4548 6.08447L16.0464 6.08447C15.5132 6.08447 15.0806 5.6521 15.0806 5.11865C15.0806 4.58521 15.5129 4.15283 16.0464 4.15283L21.4548 4.15283C21.9883 4.15283 22.4207 4.58521 22.4207 5.11865C22.4207 5.6521 21.9883 6.08447 21.4548 6.08447L21.4548 6.08447Z" id="Path" fill="#FFD659" stroke="none" />
      <path d="M21.4548 4.15283L19.5232 4.15283C20.0566 4.15283 20.489 4.58545 20.489 5.11865C20.489 5.6521 20.0566 6.08447 19.5232 6.08447L21.4548 6.08447C21.9883 6.08447 22.4207 5.6521 22.4207 5.11865C22.4207 4.58545 21.9883 4.15283 21.4548 4.15283Z" id="Path" fill="#FFBD54" stroke="none" />
      <path d="M16.345 7.78125C16.0859 7.78125 15.8762 7.99121 15.8762 8.25L15.8762 9.97876C15.8762 10.2375 16.0859 10.4475 16.345 10.4475C16.6038 10.4475 16.8137 10.2375 16.8137 9.97876L16.8137 8.25C16.8137 7.99121 16.6038 7.78125 16.345 7.78125Z" id="Path" fill="#E9EEF2" stroke="none" />
      <path d="M18.8086 7.69092C18.5698 7.71899 18.397 7.93506 18.397 8.17554L18.397 9.86548C18.397 10.1062 18.5698 10.322 18.8086 10.3503C19.093 10.3838 19.3345 10.1626 19.3345 9.88501L19.3345 8.15625C19.3345 7.87866 19.093 7.65723 18.8086 7.69092Z" id="Path" fill="#E9EEF2" stroke="none" />
      <path d="M21.4233 7.78125C21.1643 7.78125 20.9546 7.99121 20.9546 8.25L20.9546 9.97876C20.9546 10.2375 21.1643 10.4475 21.4233 10.4475C21.6821 10.4475 21.8921 10.2375 21.8921 9.97876L21.8921 8.25C21.8921 7.99121 21.6821 7.78125 21.4233 7.78125Z" id="Path" fill="#E9EEF2" stroke="none" />
      <path d="M11.6523 7.54736L26.0791 7.54736L26.0791 8.48486L11.6523 8.48486L11.6523 7.54736Z" id="Path" fill="#BFC7D1" stroke="none" />
      <path d="M28.4114 13.3989L26.6296 15.3381C26.5337 15.4426 26.3718 15.4487 26.2683 15.3518L25.3384 14.4807C25.175 14.3276 24.9092 14.4446 24.9092 14.6694L24.9092 19.5837C24.9092 19.7261 24.7947 19.8413 24.6536 19.8413L18.1401 19.8413C17.999 19.8413 17.8845 19.7261 17.8845 19.5837L17.8845 14.6697C17.8845 14.4448 17.6187 14.3279 17.4553 14.481L16.5259 15.3518C16.4226 15.4487 16.2607 15.4426 16.1648 15.3381L14.3826 13.3992C14.2864 13.2944 14.2927 13.1311 14.397 13.0344L17.8113 9.86523C17.8586 9.82129 17.9204 9.79712 17.9844 9.79712L24.8096 9.79712C24.8735 9.79712 24.9353 9.82129 24.9824 9.86523L28.397 13.0347C28.501 13.1311 28.5073 13.2944 28.4114 13.3989L28.4114 13.3989Z" id="Path" fill="#6D6670" stroke="none" />
      <path d="M26.0178 13.3989L24.2361 15.3381C24.1401 15.4426 23.9783 15.4487 23.8748 15.3518L22.9448 14.4807C22.7815 14.3276 22.5156 14.4446 22.5156 14.6694L22.5156 19.5837C22.5156 19.7261 22.4014 19.8413 22.2603 19.8413L15.7466 19.8413C15.6055 19.8413 15.4912 19.7261 15.4912 19.5837L15.4912 14.6697C15.4912 14.4448 15.2251 14.3279 15.0618 14.481L14.1326 15.3518C14.0291 15.4487 13.8672 15.4426 13.7712 15.3381L11.989 13.3992C11.8928 13.2944 11.8994 13.1311 12.0034 13.0344L15.418 9.86523C15.4651 9.82129 15.5269 9.79712 15.5908 9.79712L22.416 9.79712C22.4802 9.79712 22.542 9.82129 22.5891 9.86523L26.0034 13.0347C26.1074 13.1311 26.1138 13.2944 26.0178 13.3989L26.0178 13.3989Z" id="Path" fill="#FFD659" stroke="none" />
      <path d="M23.3489 13.3989L21.5671 15.3381C21.4712 15.4426 21.3093 15.4487 21.2061 15.3518L20.2759 14.4807C20.1125 14.3276 19.8467 14.4446 19.8467 14.6694L19.8467 19.5837C19.8467 19.7261 19.7324 19.8413 19.5913 19.8413L13.0776 19.8413C12.9365 19.8413 12.8223 19.7261 12.8223 19.5837L12.8223 14.6697C12.8223 14.4448 12.5564 14.3279 12.3928 14.481L11.4636 15.3518C11.3601 15.4487 11.1985 15.4426 11.1023 15.3381L9.32007 13.3992C9.22412 13.2944 9.23047 13.1311 9.33447 13.0344L12.749 9.86523C12.7961 9.82129 12.8579 9.79712 12.9221 9.79712L19.7471 9.79712C19.8113 9.79712 19.873 9.82129 19.9202 9.86523L23.3347 13.0347C23.4385 13.1311 23.4451 13.2944 23.3489 13.3989L23.3489 13.3989Z" id="Path" fill="#FE5E70" stroke="none" />
      <path d="M16.5415 11.6646L16.1272 11.6646C15.1038 11.6646 14.2742 10.835 14.2742 9.81152L14.2742 9.79712L18.3948 9.79712L18.3948 9.81152C18.3948 10.835 17.5652 11.6646 16.5415 11.6646L16.5415 11.6646Z" id="Path" fill="#D43B4C" stroke="none" />
    </g>
  </g>
</svg>