<?xml version="1.0" encoding="utf-8"?>
<svg width="27px" height="27px" viewBox="0 0 27 27" version="1.1" xmlns:xlink="http://www.w3.org/1999/xlink" xmlns="http://www.w3.org/2000/svg">
  <g id="teamwork">
    <path d="M25.92 21.7283L21.6494 25.92L19.9124 24.2146C19.8236 24.128 19.7294 24.049 19.6296 23.9776C19.1765 23.6502 18.618 23.4841 18.0486 23.5144C16.6654 23.588 14.3557 23.7503 13.4031 24.0474C13.1942 24.1128 12.8458 23.5648 12.8458 23.5648C12.6821 23.0009 12.9312 22.3998 13.4494 22.1087L15.8396 21.1586L9.25715 14.6977C8.91428 14.3612 8.91428 13.8158 9.25715 13.4787L9.32272 13.4143C9.66559 13.0778 10.2213 13.0778 10.5641 13.4143L10.7885 13.6345C10.4533 13.3055 10.4533 12.772 10.7885 12.4431L10.8822 12.3511C11.2174 12.0221 11.7609 12.0226 12.0961 12.3516L12.273 12.5253C11.9439 12.2023 11.9439 11.6785 12.273 11.3555L12.3888 11.2418C12.7179 10.9188 13.2515 10.9188 13.5807 11.2418L13.9412 11.5957C13.6247 11.2856 13.6247 10.7819 13.9412 10.4719L14.1032 10.3128C14.2725 10.1461 14.4985 10.0693 14.7201 10.0812C14.9125 10.0915 15.1016 10.1689 15.2483 10.3128L22.9735 17.8949C23.291 18.2065 23.4829 18.6204 23.5143 19.0603C23.522 19.1669 23.5485 19.2698 23.5931 19.365C23.6372 19.4607 23.699 19.5484 23.7756 19.6236L25.92 21.7283Z" id="Path" fill="#D8AD8F" stroke="none" />
    <g id="Group" transform="translate(9 10.08)">
      <path d="M8.86876 4.80326C8.86929 5.23286 8.69844 5.63649 8.38916 5.94006L4.99678 9.26977L0.257145 4.61769C-0.0857149 4.28117 -0.0857149 3.73575 0.257145 3.39866L0.322718 3.33429C0.665578 2.99777 1.22126 2.99777 1.56412 3.33429L1.78845 3.55448C1.4533 3.22552 1.4533 2.69202 1.78845 2.36306L1.88216 2.27108C2.21732 1.94212 2.76085 1.94264 3.09601 2.2716L3.27298 2.4453C2.9439 2.1223 2.9439 1.59855 3.27298 1.2755L3.38876 1.16185C3.71784 0.838853 4.25145 0.838853 4.58059 1.16185L4.94108 1.51569C4.62467 1.20564 4.62467 0.701941 4.94108 0.391896L5.10317 0.232806C5.27238 0.0661495 5.4984 -0.0106492 5.72004 0.00121779C5.72278 0.0266619 5.725 0.052106 5.72611 0.0774983C5.90747 0.15865 6.07393 0.271723 6.21949 0.414024L6.31321 0.506006C6.33142 0.524403 6.35016 0.543887 6.3678 0.563372C6.6236 0.839319 6.76799 1.17641 6.80052 1.52108C6.99512 1.60223 7.17373 1.72017 7.32753 1.87113L7.4477 1.98964C7.45762 1.99938 7.46755 2.00964 7.47689 2.01939C7.81701 2.37322 7.96806 2.83101 7.93057 3.27682C8.03754 3.34227 8.13727 3.41964 8.22824 3.50893L8.38974 3.66745C8.69844 3.97055 8.86876 4.37419 8.86876 4.80326Z" id="Path" fill="#C19476" stroke="none" />
      <path d="M5.47327 0.99359L13.1982 8.57578C13.5157 8.88749 13.7079 9.30133 13.739 9.74113C13.7467 9.84737 13.7734 9.95033 13.8179 10.0459C13.862 10.1416 13.9236 10.229 14.0003 10.3042L16.1449 12.4092L16.9199 11.6485L14.7754 9.54349C14.6987 9.46824 14.637 9.38082 14.593 9.28521C14.5484 9.18965 14.5218 9.08669 14.514 8.9804C14.4829 8.5406 14.2907 8.1267 13.9732 7.81505L6.24832 0.232806C5.93207 -0.077602 5.41926 -0.077602 5.10301 0.232806L4.94113 0.391689C4.82831 0.502431 4.75598 0.637735 4.72367 0.780088C4.98506 0.722877 5.26979 0.793924 5.47327 0.99359Z" id="Path" fill="#C19476" stroke="none" />
      <path d="M10.6297 13.8972L14.9204 9.68579L16.92 11.6484L12.6495 15.84L10.9121 14.1347C10.8237 14.048 10.7294 13.9687 10.6297 13.8972Z" id="Path" fill="#C19476" stroke="none" />
    </g>
    <path d="M20.6497 24.9647L24.9647 20.6497C25.1377 20.4768 25.4182 20.4768 25.5912 20.6497L26.8703 21.9288C27.0433 22.1018 27.0433 22.3823 26.8703 22.5553L22.5553 26.8703C22.3823 27.0433 22.1018 27.0433 21.9288 26.8703L20.6497 25.5912C20.4768 25.4182 20.4768 25.1377 20.6497 24.9647Z" id="Path" fill="#2796AF" stroke="none" />
    <path d="M24.48 21.2973L25.1386 20.6387C25.2968 20.4804 25.5534 20.4804 25.7116 20.6387L26.8813 21.8084C27.0396 21.9666 27.0396 22.2232 26.8813 22.3814L26.2227 23.04L24.48 21.2973Z" id="Path" fill="#0E7889" stroke="none" />
    <g id="Group" transform="translate(10.08 10.8)">
      <path d="M5.527 7.92C5.41823 7.92 5.30946 7.87934 5.22647 7.79812L0.124483 2.80156C-0.0414944 2.63896 -0.0414944 2.37548 0.124483 2.21287C0.290461 2.05038 0.559563 2.05038 0.725541 2.21287L5.82753 7.20943C5.99351 7.37203 5.99351 7.63552 5.82753 7.79812C5.74459 7.87934 5.63577 7.92 5.527 7.92Z" id="Path" fill="#C19476" stroke="none" />
      <path d="M7.34293 7.06591C7.23416 7.06591 7.12539 7.02525 7.0424 6.94403L1.65068 1.66373C1.48471 1.50113 1.48471 1.23764 1.65068 1.07504C1.81666 0.912548 2.08576 0.912548 2.25174 1.07504L7.64346 6.35534C7.80943 6.51794 7.80943 6.78142 7.64346 6.94403C7.56052 7.02525 7.4517 7.06591 7.34293 7.06591Z" id="Path" fill="#C19476" stroke="none" />
      <path d="M8.21499 5.28756C8.10622 5.28756 7.99745 5.2469 7.91446 5.16568L3.36528 0.71056C3.1993 0.54796 3.1993 0.284471 3.36528 0.121871C3.53125 -0.0406236 3.80036 -0.0406236 3.96633 0.121871L8.51552 4.57699C8.68149 4.73959 8.68149 5.00308 8.51552 5.16568C8.43253 5.24684 8.32376 5.28756 8.21499 5.28756Z" id="Path" fill="#C19476" stroke="none" />
    </g>
    <path d="M17.7428 13.5213L17.6789 13.584L17.6773 13.5856C17.3344 13.9221 16.7787 13.9221 16.4358 13.5856L16.2115 13.3654C16.5467 13.6943 16.5467 14.2278 16.2115 14.5568L16.1178 14.6488C15.7826 14.9778 15.2391 14.9772 14.9039 14.6483L14.7269 14.4746C15.056 14.7976 15.056 15.3213 14.7269 15.6444L14.6112 15.758C14.2821 16.081 13.7485 16.081 13.4193 15.758L13.0588 15.4042C13.3752 15.7142 13.3752 16.2179 13.0588 16.528L12.8967 16.6871C12.5808 16.9976 12.0676 16.9976 11.7518 16.6871L7.77385 12.7827L4.02641 9.10505C3.70888 8.7934 3.51702 8.3795 3.4856 7.93959C3.4779 7.83299 3.45144 7.73018 3.40678 7.63498C3.36269 7.53922 3.30092 7.45153 3.22431 7.37634L1.08 5.27167L5.35062 1.08L7.08765 2.78544C7.1764 2.87203 7.27064 2.95101 7.37043 3.02242C7.82359 3.34977 8.38197 3.51586 8.95145 3.4856C10.3346 3.41201 12.6444 3.24971 13.5969 2.95261C13.8058 2.88716 14.1543 3.43523 14.1543 3.43523C14.318 3.99904 14.0688 4.60012 13.5506 4.89125L11.1604 5.84134L13.6609 8.29565L14.8208 9.43406L17.743 12.3023C18.0857 12.6388 18.0857 13.1842 17.7428 13.5213Z" id="Path" fill="#F9E8D4" stroke="none" />
    <g id="Group" transform="translate(1.08 1.08)">
      <path d="M16.56 12.504L16.5584 12.5056C16.2163 12.8422 15.6619 12.8422 15.3199 12.5056L15.0961 12.2854C15.4304 12.6144 15.4304 13.1479 15.0961 13.4768L15.0026 13.5688C14.6682 13.8978 14.1259 13.8972 13.7916 13.5683L13.615 13.3946C13.9433 13.7176 13.9433 14.2413 13.615 14.5644L13.4995 14.678C13.1712 15.001 12.6388 15.001 12.3105 14.678L11.9508 14.3242C12.2665 14.6342 12.2665 15.1379 11.9508 15.448L11.7891 15.6071C11.474 15.9176 10.962 15.9176 10.6468 15.6071L6.6783 11.7027L10.8233 7.62473C11.1451 7.30873 11.5718 7.1345 12.0261 7.1345C12.2071 7.1345 12.3836 7.16213 12.5513 7.21566C12.8037 7.29572 13.0353 7.43424 13.2289 7.62416L13.2949 7.68961C13.3141 7.70858 13.3433 7.73775 13.3746 7.77346C13.5286 7.94768 13.6402 8.14569 13.7084 8.35401C13.7557 8.49631 13.7827 8.64348 13.7898 8.79117C13.9708 8.87232 14.1368 8.98539 14.2821 9.12769L14.3755 9.21968C14.3937 9.23807 14.4124 9.25756 14.43 9.27704C14.6852 9.55299 14.8293 9.89008 14.8617 10.2347C15.0559 10.3159 15.2341 10.4338 15.3875 10.5848L15.5074 10.7033C15.5173 10.7131 15.5272 10.7233 15.5365 10.7331C15.8758 11.0869 16.0265 11.5447 15.9891 11.9905C16.0958 12.0559 16.1953 12.1333 16.2861 12.2226L16.4472 12.3811C16.4874 12.4207 16.5248 12.4613 16.56 12.504Z" id="Path" fill="#EFCDB1" stroke="none" />
      <path d="M11.4199 14.8464L3.71313 7.26421C3.3963 6.95251 3.20457 6.53867 3.1736 6.09886C3.16585 5.99263 3.13925 5.88966 3.0948 5.79405C3.05087 5.69844 2.98935 5.61102 2.91287 5.53578L0.773291 3.43081L5.26729e-05 4.19154L2.13963 6.29651C2.21611 6.37175 2.27763 6.45917 2.32156 6.55478C2.36602 6.65034 2.39262 6.75331 2.40036 6.85959C2.43138 7.2994 2.62311 7.71329 2.93989 8.02494L10.6467 15.6071C10.9622 15.9175 11.4738 15.9175 11.7894 15.6071L11.9509 15.4482C12.0634 15.3375 12.1356 15.2022 12.1678 15.0598C11.907 15.1171 11.6229 15.0461 11.4199 14.8464Z" id="Path" fill="#EFCDB1" stroke="none" />
      <path d="M6.27556 1.94277L1.99488 6.15421L0 4.19159L4.2605 0L5.99386 1.70532C6.08204 1.79197 6.17611 1.87126 6.27556 1.94277Z" id="Path" fill="#EFCDB1" stroke="none" />
    </g>
    <path d="M6.35025 2.03524L2.03531 6.35025C1.86231 6.52325 1.58182 6.52325 1.40882 6.35025L0.129747 5.07132C-0.0432491 4.89832 -0.0432491 4.61782 0.129747 4.44482L4.44474 0.12975C4.61774 -0.0432499 4.89824 -0.0432499 5.07123 0.12975L6.35025 1.40879C6.52325 1.58179 6.52325 1.86224 6.35025 2.03524Z" id="Path" fill="#FB4239" stroke="none" />
    <path d="M2.52 5.70271L1.86133 6.36134C1.70311 6.51955 1.44658 6.51955 1.28836 6.36134L0.118663 5.19159C-0.0395542 5.03337 -0.0395542 4.77684 0.118663 4.61862L0.777286 3.96L2.52 5.70271Z" id="Path" fill="#C4000A" stroke="none" />
    <g id="Group" transform="translate(8.28 1.08)">
      <path d="M7.88569 12.9303C7.78128 12.9303 7.67687 12.8899 7.59721 12.8092L2.69973 7.84627C2.54041 7.68477 2.54041 7.42305 2.69973 7.26155C2.85906 7.10015 3.11737 7.10015 3.2767 7.26155L8.17417 12.2245C8.3335 12.386 8.3335 12.6477 8.17417 12.8092C8.09446 12.8899 7.99005 12.9303 7.88569 12.9303Z" id="Path" fill="#EFCDB1" stroke="none" />
      <path d="M6.42062 14.0604C6.31621 14.0604 6.2118 14.02 6.13213 13.9393L0.956545 8.69456C0.79722 8.53306 0.79722 8.27134 0.956545 8.10984C1.11587 7.94844 1.37418 7.94844 1.53351 8.10984L6.7091 13.3546C6.86842 13.5161 6.86842 13.7778 6.7091 13.9393C6.62944 14.02 6.52502 14.0604 6.42062 14.0604Z" id="Path" fill="#EFCDB1" stroke="none" />
      <path d="M4.7748 15.0072C4.67039 15.0072 4.56598 14.9668 4.48632 14.8861L0.119493 10.461C-0.0398311 10.2995 -0.0398311 10.0378 0.119493 9.87627C0.278817 9.71487 0.537133 9.71487 0.696457 9.87627L5.06329 14.3014C5.22261 14.4629 5.22261 14.7246 5.06329 14.8861C4.98357 14.9669 4.87916 15.0072 4.7748 15.0072Z" id="Path" fill="#EFCDB1" stroke="none" />
      <path d="M15.6871 6.29045C15.3579 6.74361 15.191 7.30199 15.2214 7.87146C15.2954 9.25458 15.4585 11.5643 15.7572 12.5169C15.823 12.7258 15.272 13.0742 15.272 13.0742C14.7051 13.238 14.1007 12.9888 13.8081 12.4706L12.8529 10.0804L6.35716 16.6629C6.01881 17.0057 5.47045 17.0057 5.13154 16.6629L5.06683 16.5972C4.72849 16.2544 4.72849 15.6987 5.06683 15.3558L5.28826 15.1315C4.95752 15.4666 4.42114 15.4666 4.09041 15.1315L3.99793 15.0378C3.66719 14.7026 3.66771 14.1591 3.99845 13.8239L4.17309 13.6469C3.84835 13.976 3.32176 13.976 2.99697 13.6469L2.88271 13.5312C2.55797 13.2021 2.55797 12.6685 2.88271 12.3394L3.23846 11.9789C2.92674 12.2953 2.42032 12.2953 2.1086 11.9789L1.94865 11.8168C1.63641 11.5009 1.63641 10.9877 1.94865 10.6718L5.25715 7.3191L9.57157 2.9465C9.8849 2.62898 10.301 2.43711 10.7433 2.4057C10.8505 2.39799 10.9539 2.37154 11.0496 2.32687C11.1458 2.28279 11.234 2.22101 11.3096 2.1444L13.4257 0L17.64 4.27059L15.9254 6.00762C15.8383 6.09642 15.7588 6.19066 15.6871 6.29045Z" id="Path" fill="#EFCDB1" stroke="none" />
    </g>
    <g id="Group" transform="translate(10.08 1.08)">
      <path d="M7.88087 13.3382L4.61772 16.6629C4.2812 17.0057 3.73579 17.0057 3.39869 16.6629L3.33433 16.5972C2.99781 16.2544 2.99781 15.6987 3.33433 15.3558L3.55457 15.1315C3.22561 15.4666 2.69212 15.4666 2.36316 15.1315L2.27118 15.0378C1.94222 14.7026 1.94274 14.1591 2.2717 13.8239L2.4454 13.6469C2.1224 13.976 1.59865 13.976 1.2756 13.6469L1.16196 13.5312C0.838963 13.2021 0.838963 12.6685 1.16196 12.3394L1.51579 11.9789C1.20575 12.2953 0.702053 12.2953 0.39201 11.9789L0.232921 11.8168C-0.0776403 11.5009 -0.0776403 10.9877 0.232921 10.6719L3.52363 7.31916C3.81528 7.39302 4.08309 7.54629 4.30115 7.76787L4.36608 7.83456C4.385 7.85388 4.41371 7.88361 4.44454 7.91998C4.69991 8.21876 4.83516 8.58591 4.85304 8.95691C5.03104 9.03959 5.19444 9.15479 5.33731 9.29977L5.42929 9.39349C5.44716 9.41223 5.46556 9.43208 5.48287 9.45193C5.73394 9.73307 5.87567 10.0765 5.90759 10.4277C6.0986 10.5103 6.27391 10.6305 6.42486 10.7843L6.54281 10.9051C6.55255 10.915 6.56229 10.9254 6.57147 10.9354C6.90529 11.2959 7.05355 11.7623 7.01676 12.2165C7.12175 12.2832 7.21964 12.362 7.30892 12.4529L7.46744 12.6145C7.66773 12.8184 7.80842 13.067 7.88087 13.3382Z" id="Path" fill="#D8AD8F" stroke="none" />
      <path d="M13.8972 6.29031L9.68583 1.99957L11.6484 0L15.84 4.27051L14.1347 6.00795C14.048 6.09633 13.9687 6.19063 13.8972 6.29031Z" id="Path" fill="#D8AD8F" stroke="none" />
      <path d="M0.993699 11.4467L8.57578 3.72185C8.88748 3.40428 9.30132 3.2121 9.74113 3.18105C9.84736 3.17329 9.95033 3.14663 10.0459 3.10207C10.1415 3.05804 10.229 2.99637 10.3042 2.91971L12.4092 0.775109L11.6484 5.27967e-05L9.54348 2.14466C9.46824 2.22132 9.38082 2.28298 9.28521 2.32701C9.18965 2.37158 9.08668 2.39824 8.9804 2.406C8.5406 2.4371 8.12671 2.62928 7.81506 2.9468L0.232921 10.6716C-0.0774848 10.9879 -0.0774848 11.5007 0.232921 11.817L0.391803 11.9788C0.502544 12.0917 0.637847 12.164 0.780198 12.1963C0.722988 11.935 0.794035 11.6502 0.993699 11.4467Z" id="Path" fill="#D8AD8F" stroke="none" />
    </g>
    <path d="M24.9647 6.35025L20.6497 2.03527C20.4768 1.86227 20.4768 1.58178 20.6497 1.40878L21.9288 0.129748C22.1018 -0.0432495 22.3823 -0.0432495 22.5553 0.129748L26.8703 4.44473C27.0433 4.61773 27.0433 4.89822 26.8703 5.07122L25.5912 6.35025C25.4182 6.52325 25.1377 6.52325 24.9647 6.35025Z" id="Path" fill="#FEC007" stroke="none" />
    <path d="M21.2973 2.52L20.6387 1.86138C20.4804 1.70316 20.4804 1.44663 20.6387 1.28841L21.8084 0.118663C21.9666 -0.0395542 22.2232 -0.0395542 22.3814 0.118663L23.04 0.777286L21.2973 2.52Z" id="Path" fill="#FE9700" stroke="none" />
    <g id="Group" transform="translate(10.8 8.28)">
      <path d="M2.5073 8.64C2.40078 8.64 2.29426 8.59848 2.21299 8.51554C2.05044 8.34951 2.05044 8.08047 2.21299 7.91444L7.20946 2.81247C7.37201 2.64655 7.63555 2.64655 7.79809 2.81247C7.96064 2.9785 7.96064 3.24755 7.79809 3.41358L2.80161 8.51554C2.72029 8.59842 2.61382 8.64 2.5073 8.64Z" id="Path" fill="#D8AD8F" stroke="none" />
      <path d="M1.36954 7.1137C1.26302 7.1137 1.1565 7.07218 1.07523 6.98924C0.912681 6.82321 0.912681 6.55416 1.07523 6.38813L6.35544 0.996389C6.51798 0.830467 6.78152 0.830467 6.94407 0.996389C7.10661 1.16242 7.10661 1.43147 6.94407 1.5975L1.66385 6.98924C1.58258 7.07218 1.47606 7.1137 1.36954 7.1137Z" id="Path" fill="#D8AD8F" stroke="none" />
      <path d="M0.416222 5.39911C0.309702 5.39911 0.203181 5.35759 0.121909 5.27466C-0.0406362 5.10863 -0.0406362 4.83958 0.121909 4.67355L4.57696 0.124442C4.7395 -0.0415349 5.00309 -0.0414263 5.16559 0.124442C5.32813 0.290473 5.32813 0.55952 5.16559 0.725551L0.710536 5.27466C0.629317 5.35759 0.522743 5.39911 0.416222 5.39911Z" id="Path" fill="#D8AD8F" stroke="none" />
    </g>
    <path d="M16.6871 15.2482L9.10505 22.9735C8.7934 23.2911 8.3795 23.4829 7.93959 23.5143C7.83299 23.522 7.73018 23.5485 7.63498 23.5932C7.53922 23.6373 7.45153 23.699 7.37634 23.7756L5.27162 25.92L1.08 21.6494L2.78544 19.9123C2.87203 19.8236 2.95101 19.7293 3.02242 19.6296C3.34977 19.1765 3.51586 18.618 3.4856 18.0485C3.41201 16.6654 3.24971 14.3556 2.95267 13.4031C2.88722 13.1941 3.43528 12.8457 3.43528 12.8457C3.99909 12.682 4.60022 12.9312 4.8913 13.4494L5.84139 15.8396L12.3022 9.25715C12.6387 8.91428 13.1842 8.91428 13.5213 9.25715L13.5856 9.32278C13.5991 9.33656 13.6122 9.35034 13.624 9.36465C13.9216 9.70973 13.9086 10.2351 13.5856 10.5642L13.3654 10.7885C13.3897 10.7637 13.4152 10.7411 13.4411 10.7202C13.7717 10.455 14.2522 10.4782 14.5568 10.7885L14.6488 10.8823C14.6574 10.8911 14.6656 10.8999 14.6731 10.9087C14.9778 11.2455 14.9686 11.7698 14.6483 12.0961L14.4746 12.2731C14.4962 12.251 14.5189 12.2306 14.5422 12.2114C14.8669 11.9456 15.343 11.9661 15.6443 12.2731L15.758 12.3889C15.7628 12.3938 15.7677 12.3988 15.772 12.4038C16.081 12.734 16.0761 13.2566 15.758 13.5807L15.4041 13.9412C15.4247 13.9203 15.4458 13.901 15.468 13.8823C15.7802 13.6264 16.2385 13.6458 16.5279 13.9412L16.687 14.1033C16.9976 14.4191 16.9976 14.9323 16.6871 15.2482Z" id="Path" fill="#C19476" stroke="none" />
    <g id="Group" transform="translate(1.08 13.68)">
      <path d="M14.8465 0.752343L7.26424 8.50488C6.95254 8.82359 6.53869 9.01646 6.09889 9.04762C5.99265 9.0554 5.88968 9.08216 5.79408 9.12688C5.69846 9.17107 5.61104 9.23296 5.5358 9.30989L3.43082 11.4622L4.19156 12.24L6.29653 10.0877C6.37178 10.0108 6.4592 9.9489 6.55481 9.90471C6.65037 9.85999 6.75334 9.83323 6.85962 9.82544C7.29943 9.79424 7.71332 9.60137 8.02498 9.28271L15.6072 1.53012C15.9176 1.21274 15.9176 0.698086 15.6072 0.380702L15.4483 0.218248C15.3376 0.105018 15.2023 0.0324272 15.0599 0C15.1171 0.262385 15.0461 0.548136 14.8465 0.752343Z" id="Path" fill="#AA7F63" stroke="none" />
      <path d="M1.94278 5.92729L6.15423 10.2334L4.19161 12.24L0 7.9542L1.70533 6.21055C1.79198 6.12191 1.87126 6.02733 1.94278 5.92729Z" id="Path" fill="#AA7F63" stroke="none" />
    </g>
    <path d="M2.03524 20.6497L6.35025 24.9647C6.52325 25.1377 6.52325 25.4182 6.35025 25.5912L5.07121 26.8703C4.89821 27.0433 4.61771 27.0433 4.44471 26.8703L0.12975 22.5553C-0.0432499 22.3823 -0.0432499 22.1018 0.12975 21.9288L1.40879 20.6497C1.58179 20.4768 1.86224 20.4768 2.03524 20.6497Z" id="Path" fill="#B9F268" stroke="none" />
    <path d="M5.70271 24.48L6.36134 25.1386C6.51955 25.2968 6.51955 25.5534 6.36134 25.7116L5.19159 26.8813C5.03337 27.0396 4.77684 27.0396 4.61862 26.8813L3.96 26.2227L5.70271 24.48Z" id="Path" fill="#8BCC3F" stroke="none" />
    <g id="Group" transform="translate(7.92 9.36)">
      <path d="M6.09404 1.18299L5.86182 1.40423C5.8875 1.37976 0.730244 6.30302 0.730244 6.30302C0.646973 6.38294 0.537421 6.42262 0.427868 6.42262C0.318316 6.42262 0.208819 6.38294 0.124947 6.30302C-0.041649 6.14374 -0.041649 5.88548 0.124947 5.72621L6.13453 0C6.44827 0.340318 6.43461 0.858397 6.09404 1.18299Z" id="Path" fill="#AA7F63" stroke="none" />
      <path d="M7.21448 2.6937L7.03133 2.86823C7.05417 2.84647 1.6071 8.04429 1.6071 8.04429C1.52383 8.12364 1.41428 8.16389 1.30472 8.16389C1.19517 8.16389 1.08567 8.12364 1.00235 8.04429C0.835206 7.88501 0.835206 7.62675 1.00235 7.46747L7.24071 1.52268C7.56188 1.85488 7.55221 2.37187 7.21448 2.6937Z" id="Path" fill="#AA7F63" stroke="none" />
      <path d="M8.38453 4.15776L8.01145 4.51328C8.03314 4.49261 3.43495 8.8804 3.43495 8.8804C3.35168 8.96032 3.24213 9 3.13258 9C3.02303 9 2.91353 8.96032 2.8302 8.8804C2.66306 8.72164 2.66306 8.46344 2.8302 8.30416L8.39934 2.9971C8.72521 3.32274 8.72002 3.83816 8.38453 4.15776Z" id="Path" fill="#AA7F63" stroke="none" />
    </g>
  </g>
</svg>