<?xml version="1.0" encoding="utf-8"?>
<svg width="27px" height="27px" viewBox="0 0 27 27" version="1.1" xmlns:xlink="http://www.w3.org/1999/xlink" xmlns="http://www.w3.org/2000/svg">
  <g id="blocks">
    <path d="M13.988 10.08L8.33198 10.08C7.70681 10.08 7.2 9.57748 7.2 8.95761L7.2 1.12239C7.2 0.502518 7.70676 0 8.33198 0L13.988 0C14.6132 0 15.12 0.502518 15.12 1.12239L15.12 8.95756C15.12 9.57748 14.6132 10.08 13.988 10.08Z" id="Path" fill="#43809F" stroke="none" />
    <path d="M13.968 7.62873e-16L12.24 7.62873e-16C12.8762 7.62873e-16 13.392 0.509929 13.392 1.13898L13.392 8.94102C13.392 9.57007 12.8762 10.08 12.24 10.08L13.968 10.08C14.6042 10.08 15.12 9.57007 15.12 8.94102L15.12 1.13898C15.1199 0.509929 14.6042 0 13.968 0L13.968 7.62873e-16Z" id="Path" fill="#3A7190" stroke="none" />
    <path d="M17.28 8.98071L17.28 3.25924C17.28 2.65215 17.779 2.16 18.3945 2.16L20.7075 2.16C24.1828 2.16 27 4.93859 27 8.36616L27 8.98076C27 9.58785 26.501 10.08 25.8855 10.08L18.3945 10.08C17.779 10.08 17.28 9.58785 17.28 8.98071L17.28 8.98071Z" id="Path" fill="#FFD54F" stroke="none" />
    <path d="M20.7425 2.16L19.08 2.16C22.5359 2.16 25.3375 4.97967 25.3375 8.45789L25.3375 8.96451C25.3375 9.58059 24.8413 10.08 24.2292 10.08L25.8916 10.08C26.5038 10.08 27 9.58059 27 8.96451L27 8.45789C27 4.97967 24.1984 2.16 20.7425 2.16L20.7425 2.16Z" id="Path" fill="#FFC328" stroke="none" />
    <path d="M24.8481 27L7.91193 27C7.31993 27 6.84 26.5164 6.84 25.92L6.84 19.44C6.84 18.8436 7.31993 18.36 7.91193 18.36L24.8481 18.36C25.4401 18.36 25.92 18.8436 25.92 19.44L25.92 25.92C25.92 26.5164 25.4401 27 24.8481 27Z" id="Path" fill="#7BE492" stroke="none" />
    <path d="M24.768 18.36L23.04 18.36C23.6762 18.36 24.192 18.8436 24.192 19.44L24.192 25.92C24.192 26.5164 23.6762 27 23.04 27L24.768 27C25.4042 27 25.92 26.5164 25.92 25.92L25.92 19.44C25.9199 18.8436 25.4042 18.36 24.768 18.36Z" id="Path" fill="#45D987" stroke="none" />
    <path d="M21.5941 18.72L4.68587 18.72C4.08618 18.72 3.6 18.2228 3.6 17.6095L3.6 10.8305C3.6 10.2172 4.08618 9.72 4.68587 9.72L21.5941 9.72C22.1938 9.72 22.68 10.2172 22.68 10.8305L22.68 17.6095C22.68 18.2228 22.1938 18.72 21.5941 18.72Z" id="Path" fill="#F75632" stroke="none" />
    <path d="M21.888 9.72L20.16 9.72C20.7962 9.72 21.312 10.2237 21.312 10.845L21.312 17.595C21.312 18.2163 20.7962 18.72 20.16 18.72L21.888 18.72C22.5242 18.72 23.04 18.2163 23.04 17.595L23.04 10.845C23.04 10.2237 22.5242 9.72 21.888 9.72Z" id="Path" fill="#E33629" stroke="none" />
    <path d="M17.351 27L0.288975 27C0.0478233 27 -0.0868368 26.7178 0.0627797 26.526L8.59383 15.591C8.7093 15.443 8.93074 15.443 9.04622 15.591L17.5773 26.526C17.7268 26.7178 17.5921 27 17.351 27Z" id="Path" fill="#FFD54F" stroke="none" />
    <path d="M17.5767 26.526L8.9719 15.591C8.85542 15.443 8.63207 15.443 8.51559 15.591L7.92 16.3479L15.9292 26.526C16.0802 26.7178 15.9443 27 15.7011 27L17.3485 27C17.5918 27 17.7276 26.7178 17.5767 26.526Z" id="Path" fill="#FFC328" stroke="none" />
  </g>
</svg>