<?xml version="1.0" encoding="utf-8"?>
<svg width="27px" height="27px" viewBox="0 0 27 27" version="1.1" xmlns:xlink="http://www.w3.org/1999/xlink" xmlns="http://www.w3.org/2000/svg">
  <g id="gardening">
    <path d="M2.19767 16.9341C2.19767 16.9341 5.66769 14.2808 6.90698 16.7479C6.90698 16.7479 5.03427 19.9081 2.19767 16.9341Z" id="XMLID_1656_" fill="#47B85B" stroke="none" />
    <path d="M2.19767 16.8395C5.03427 20.0341 6.90698 16.6395 6.90698 16.6395L2.19767 16.8395Z" id="XMLID_2206_" fill="#399349" stroke="none" />
    <g id="XMLID_1654_" transform="translate(6.5930233 10.360465)">
      <path d="M2.14154 10.3605L1.64001 10.3226C2.04625 4.2492 0.0200612 0.303127 0 0.265237L0.436332 0C0.456393 0.0433039 0.977986 1.04471 1.44942 2.83099C1.89077 4.46572 2.36221 7.10184 2.14154 10.3605Z" id="XMLID_2207_" fill="#2B6E37" stroke="none" />
    </g>
    <path d="M4.74698 2.82558C6.41721 2.82558 6.50512 5.19907 6.50512 5.19907C6.50512 5.19907 7.34023 3.48488 8.83465 4.01233C10.3291 4.53977 8.08744 6.7814 8.08744 6.7814C8.08744 6.7814 10.9884 5.46279 10.9884 7.39674C10.9884 9.3307 8.1314 9.24279 8.1314 9.24279C8.1314 9.24279 11.1862 10.012 9.71372 11.4844C8.24128 12.9569 7.25233 10.6493 7.25233 10.6493C7.25233 10.6493 8.30721 13.814 6.2414 13.814C4.17558 13.814 5.0986 11.2262 5.0986 11.2262C5.0986 11.2262 3.1207 13.9898 1.84605 12.7151C0.571395 11.4405 2.94488 10.034 2.94488 10.034C2.94488 10.034 0 10.7372 0 8.7593C0 6.7814 2.81302 7.22093 2.81302 7.22093C2.81302 7.22093 0.939506 6.34186 1.37904 5.06721C1.81858 3.79256 3.95581 5.15512 3.95581 5.15512C3.95581 5.15512 3.07674 2.82558 4.74698 2.82558Z" id="XMLID_1658_" fill="#FFE3A8" stroke="none" />
    <path d="M10.9884 7.19313C10.9884 5.29243 8.11763 6.58836 8.11763 6.58836C8.11763 6.58836 10.3359 4.38528 8.85706 3.86691C8.62327 3.78591 8.40035 3.75891 8.19918 3.76971C7.75879 7.09054 5.29038 9.77419 2.07167 10.5626C1.60953 11.0701 1.28331 11.7613 1.94118 12.4201C3.20257 13.6728 5.15989 10.9567 5.15989 10.9567C5.15989 10.9567 4.24648 13.5 6.29079 13.5C8.33511 13.5 7.2912 10.3898 7.2912 10.3898C7.2912 10.3898 8.26987 12.6576 9.72699 11.2105C11.1841 9.7634 8.16113 9.00744 8.16113 9.00744C8.16113 9.00744 10.9884 9.09383 10.9884 7.19313L10.9884 7.19313Z" id="XMLID_2296_" fill="#FFCB5C" stroke="none" />
    <path d="M14.1279 24.4884L14.8652 13.814L24.8023 15.8746L20.8123 24.4884L14.1279 24.4884Z" id="XMLID_1651_" fill="#3179AF" stroke="none" />
    <path d="M18.2594 14.4419L17.6173 17.5002C17.4331 18.3771 17.9752 19.2432 18.8278 19.4272C18.9384 19.4543 19.0489 19.4651 19.1594 19.4651C19.8857 19.4651 20.5436 18.9455 20.7015 18.1822L21.3488 15.1022L18.2594 14.4419Z" id="XMLID_2578_" fill="#265E87" stroke="none" />
    <g id="XMLID_1649_" transform="translate(18.209303 8.790698)">
      <path d="M0.68731 10.0284C0.216573 9.93429 -0.0798166 9.49129 0.01898 9.04275L2.06465 0L3.76744 0.348863L1.72177 9.39161C1.62297 9.84015 1.15805 10.1226 0.68731 10.0284Z" id="XMLID_1650_" fill="#3179AF" stroke="none" />
    </g>
    <path d="M27 27C27 27 25.7092 22.3849 21.2612 23.9617C21.2612 23.9617 19.255 21.9453 17.4263 21.9453C15.5976 21.9453 13.301 22.9343 13.301 22.9343C13.301 22.9343 10.5042 20.407 8.89064 20.407C7.27709 20.407 6.41653 22.6431 3.83486 23.7035C1.25319 24.7639 0 27 0 27L27 27Z" id="XMLID_1660_" fill="#F89720" stroke="none" />
    <path d="M5.65116 10.0465C6.69151 10.0465 7.53488 9.20314 7.53488 8.16279C7.53488 7.12244 6.69151 6.27907 5.65116 6.27907C4.61081 6.27907 3.76744 7.12244 3.76744 8.16279C3.76744 9.20314 4.61081 10.0465 5.65116 10.0465Z" id="XMLID_1659_" fill="#F89720" stroke="none" />
    <path d="M6.45766 6.27907C6.60015 6.55265 6.67994 6.86613 6.67994 7.19671C6.67994 8.29673 5.7851 9.19157 4.68508 9.19157C4.3545 9.19157 4.04102 9.11178 3.76744 8.96929C4.09802 9.60764 4.77057 10.0465 5.54002 10.0465C6.64005 10.0465 7.53488 9.15167 7.53488 8.05165C7.53488 7.2822 7.09601 6.60965 6.45766 6.27907Z" id="XMLID_2323_" fill="#DF7E07" stroke="none" />
    <path d="M13.5 11.7303C13.5 11.7303 9.48521 10.8593 9.74461 13.9313C9.7505 13.9313 13.0225 15.102 13.5 11.7303L13.5 11.7303Z" id="XMLID_1657_" fill="#47B85B" stroke="none" />
    <path d="M13.5 11.9302L9.73256 14.2359C9.73847 14.2359 13.0209 15.4623 13.5 11.9302L13.5 11.9302Z" id="XMLID_2166_" fill="#399349" stroke="none" />
    <g id="XMLID_1655_" transform="translate(8.544066 13.108047)">
      <path d="M3.00679 0.0780002L3.31884 0.480093L0.312051 2.58963L0 2.18754L3.00679 0.0780002Z" id="XMLID_2205_" fill="#2B6E37" stroke="none" />
    </g>
    <g id="XMLID_1653_" transform="translate(4.7093024 16.304495)">
      <path d="M4.3718 0.0555303L4.39535 0.776513L0.0235519 1.02447L0 0.303486L4.3718 0.0555303Z" id="XMLID_2201_" fill="#2B6E37" stroke="none" />
    </g>
    <path d="M19.7791 10.9591L21.2201 11.3023L21.6628 9.1235L20.2217 8.7907L19.7791 10.9591Z" id="XMLID_2618_" fill="#265E87" stroke="none" />
    <path d="M20.9045 1.55463L19.4651 9.92995L22.637 10.6744L24.4428 2.30458C24.6993 1.12218 23.8409 0 22.6841 0C21.81 0 21.0615 0.656887 20.9045 1.55463Z" id="XMLID_1652_" fill="#F89720" stroke="none" />
    <path d="M22.9186 8.24744L19.3281 7.53488L19.1512 8.4671L22.7131 9.10465L22.9186 8.24744Z" id="XMLID_1648_" fill="#DF7E07" stroke="none" />
    <path d="M23.8605 5.72745L20.282 5.02326L20.093 5.94262L23.6382 6.59302L23.8605 5.72745Z" id="XMLID_1647_" fill="#DF7E07" stroke="none" />
    <path d="M21.3602 4.34172C21.7711 4.40576 22.2202 3.71301 22.3634 2.79441C22.5066 1.87582 22.2896 1.07923 21.8787 1.01519C21.4678 0.951146 21.0187 1.6439 20.8755 2.56249C20.7323 3.48109 20.9493 4.27768 21.3602 4.34172Z" id="XMLID_2612_" fill="#FAAE52" stroke="none" />
    <path d="M10.8973 25.1163C10.8973 25.1163 12.0735 23.7035 13.186 23.064C13.186 23.064 12.2794 22.1163 11.2355 21.3488C10.2161 23.5116 10.8973 25.1163 10.8973 25.1163L10.8973 25.1163Z" id="XMLID_2645_" fill="#DF7E07" stroke="none" />
  </g>
</svg>