<?xml version="1.0" encoding="utf-8"?>
<svg width="25px" height="27px" viewBox="0 0 25 27" version="1.1" xmlns:xlink="http://www.w3.org/1999/xlink" xmlns="http://www.w3.org/2000/svg">
  <g id="closet">
    <path d="M23.8359 27L0 27L0 0.210938C0 0.0943451 0.0943451 0 0.210938 0L23.8359 0C23.9525 0 24.0469 0.0943451 24.0469 0.210938L24.0469 26.7891C24.0469 26.9057 23.9525 27 23.8359 27Z" id="Path" fill="#FBE1A8" stroke="none" />
    <path d="M23.8359 27L22.4148 27L22.4148 0L23.8359 0C23.9525 0 24.0469 0.0943451 24.0469 0.210938L24.0469 26.7891C24.0469 26.9057 23.9525 27 23.8359 27Z" id="Path" fill="#F2CF91" stroke="none" />
    <path d="M1.64713 1.62982L7.80634 1.62982L7.80634 19.2314L1.64713 19.2314L1.64713 1.62982Z" id="Path" fill="#B5FCFF" stroke="none" />
    <path d="M6.17672 1.62982L7.80634 1.62982L7.80634 19.2314L6.17672 19.2314L6.17672 1.62982Z" id="Path" fill="#8CF2FF" stroke="none" />
    <path d="M9.43616 1.62982L22.3997 1.62982L22.3997 19.2314L9.43616 19.2314L9.43616 1.62982Z" id="Path" fill="#AF8164" stroke="none" />
    <path d="M7.80634 1.23431L1.64713 1.23431C1.42877 1.23431 1.25162 1.41126 1.25162 1.62982L1.25162 19.2314C1.25162 19.4497 1.42877 19.6269 1.64713 19.6269L7.80634 19.6269C8.02489 19.6269 8.20184 19.4497 8.20184 19.2314L8.20184 1.62982C8.20184 1.41126 8.02489 1.23431 7.80634 1.23431ZM7.30536 18.8359L2.1481 18.8359C2.08981 18.8359 2.04263 18.7887 2.04263 18.7304L2.04263 2.1308C2.04263 2.0725 2.08981 2.02533 2.1481 2.02533L7.30536 2.02533C7.36366 2.02533 7.41083 2.0725 7.41083 2.1308L7.41083 18.7304C7.41083 18.7887 7.36366 18.8359 7.30536 18.8359Z" id="Shape" fill="#EABF7E" stroke="none" />
    <path d="M22.3997 1.23431L9.43616 1.23431C9.2178 1.23431 9.04065 1.41126 9.04065 1.62982L9.04065 19.2314C9.04065 19.4497 9.2178 19.6269 9.43616 19.6269L22.3997 19.6269C22.6181 19.6269 22.7953 19.4497 22.7953 19.2314L22.7953 1.62982C22.7953 1.41126 22.6181 1.23431 22.3997 1.23431ZM21.8988 18.8359L9.93713 18.8359C9.87884 18.8359 9.83167 18.7887 9.83167 18.7304L9.83167 2.1308C9.83167 2.0725 9.87884 2.02533 9.93713 2.02533L21.8988 2.02533C21.9571 2.02533 22.0042 2.0725 22.0042 2.1308L22.0042 18.7304C22.0042 18.7887 21.9569 18.8359 21.8988 18.8359Z" id="Shape" fill="#EABF7E" stroke="none" />
    <path d="M12.8383 21.4044L22.3997 21.4044L22.3997 25.2072L12.8383 25.2072L12.8383 21.4044Z" id="Path" fill="#EABF7E" stroke="none" />
    <path d="M1.64713 21.4044L11.2085 21.4044L11.2085 25.2072L1.64713 25.2072L1.64713 21.4044Z" id="Path" fill="#EABF7E" stroke="none" />
    <g id="Group" transform="translate(1.2516174 21.00888)">
      <path d="M21.1481 0L11.5867 0C11.3682 0 11.1912 0.177155 11.1912 0.395508L11.1912 4.19836C11.1912 4.41671 11.3682 4.59386 11.5867 4.59386L21.1481 4.59386C21.3665 4.59386 21.5436 4.41671 21.5436 4.19836L21.5436 0.395508C21.5436 0.177155 21.3665 0 21.1481 0ZM20.6472 3.80285L12.0877 3.80285C12.0294 3.80285 11.9822 3.75568 11.9822 3.69738L11.9822 0.896484C11.9822 0.838188 12.0294 0.791016 12.0877 0.791016L20.6472 0.791016C20.7055 0.791016 20.7526 0.838188 20.7526 0.896484L20.7526 3.69738C20.7526 3.75568 20.7052 3.80285 20.6472 3.80285Z" id="Shape" fill="#AF8164" stroke="none" />
      <path d="M9.95691 0L0.395508 0C0.177155 0 0 0.177155 0 0.395508L0 4.19836C0 4.41671 0.177155 4.59386 0.395508 4.59386L9.95691 4.59386C10.1755 4.59386 10.3524 4.41671 10.3524 4.19836L10.3524 0.395508C10.3524 0.177155 10.1753 0 9.95691 0ZM9.45593 3.80285L0.896484 3.80285C0.838188 3.80285 0.791016 3.75568 0.791016 3.69738L0.791016 0.896484C0.791016 0.838188 0.838188 0.791016 0.896484 0.791016L9.45593 0.791016C9.51423 0.791016 9.5614 0.838188 9.5614 0.896484L9.5614 3.69738C9.5614 3.75568 9.51423 3.80285 9.45593 3.80285Z" id="Shape" fill="#AF8164" stroke="none" />
      <path d="M5.39353 1.90153L4.85033 1.90153C4.63177 1.90153 4.45482 2.07848 4.45482 2.29704C4.45482 2.51539 4.63177 2.69254 4.85033 2.69254L5.39353 2.69254C5.61209 2.69254 5.78904 2.51539 5.78904 2.29704C5.78904 2.07848 5.61189 1.90153 5.39353 1.90153Z" id="Path" fill="#AF8164" stroke="none" />
      <path d="M16.6391 1.90153L16.0957 1.90153C15.8774 1.90153 15.7002 2.07848 15.7002 2.29704C15.7002 2.51539 15.8774 2.69254 16.0957 2.69254L16.6391 2.69254C16.8575 2.69254 17.0346 2.51539 17.0346 2.29704C17.0346 2.07848 16.8575 1.90153 16.6391 1.90153Z" id="Path" fill="#AF8164" stroke="none" />
    </g>
    <path d="M18.1025 6.7636L13.5391 6.7636C13.0892 6.7636 12.7242 6.39878 12.7242 5.94868C12.7242 5.49859 13.089 5.13377 13.5391 5.13377L18.1025 5.13377C18.5526 5.13377 18.9174 5.49859 18.9174 5.94868C18.9174 6.39878 18.5526 6.7636 18.1025 6.7636L18.1025 6.7636Z" id="Path" fill="#6D6670" stroke="none" />
    <path d="M18.1025 5.13377L16.4727 5.13377C16.9228 5.13377 17.2876 5.49859 17.2876 5.94868C17.2876 6.39878 16.9228 6.7636 16.4727 6.7636L18.1025 6.7636C18.5526 6.7636 18.9174 6.39878 18.9174 5.94868C18.9174 5.49859 18.5526 5.13377 18.1025 5.13377Z" id="Path" fill="#5B545F" stroke="none" />
    <path d="M18.1025 5.13377L13.5391 5.13377C13.0892 5.13377 12.7242 4.76896 12.7242 4.31886C12.7242 3.86877 13.089 3.50395 13.5391 3.50395L18.1025 3.50395C18.5526 3.50395 18.9174 3.86877 18.9174 4.31886C18.9174 4.76896 18.5526 5.13377 18.1025 5.13377L18.1025 5.13377Z" id="Path" fill="#FFD659" stroke="none" />
    <path d="M18.1025 3.50395L16.4727 3.50395C16.9228 3.50395 17.2876 3.86897 17.2876 4.31886C17.2876 4.76896 16.9228 5.13377 16.4727 5.13377L18.1025 5.13377C18.5526 5.13377 18.9174 4.76896 18.9174 4.31886C18.9174 3.86897 18.5526 3.50395 18.1025 3.50395Z" id="Path" fill="#FFBD54" stroke="none" />
    <path d="M13.7911 6.56543C13.5725 6.56543 13.3956 6.74258 13.3956 6.96094L13.3956 8.41958C13.3956 8.63793 13.5725 8.81509 13.7911 8.81509C14.0094 8.81509 14.1866 8.63793 14.1866 8.41958L14.1866 6.96094C14.1866 6.74258 14.0094 6.56543 13.7911 6.56543Z" id="Path" fill="#E9EEF2" stroke="none" />
    <path d="M15.8698 6.48921C15.6683 6.5129 15.5224 6.69521 15.5224 6.89811L15.5224 8.324C15.5224 8.52711 15.6683 8.70921 15.8698 8.7331C16.1097 8.76132 16.3135 8.57469 16.3135 8.34048L16.3135 6.88184C16.3135 6.64762 16.1097 6.46078 15.8698 6.48921Z" id="Path" fill="#E9EEF2" stroke="none" />
    <path d="M18.0759 6.56543C17.8574 6.56543 17.6804 6.74258 17.6804 6.96094L17.6804 8.41958C17.6804 8.63793 17.8574 8.81509 18.0759 8.81509C18.2943 8.81509 18.4715 8.63793 18.4715 8.41958L18.4715 6.96094C18.4715 6.74258 18.2943 6.56543 18.0759 6.56543Z" id="Path" fill="#E9EEF2" stroke="none" />
    <path d="M9.83167 6.36809L22.0042 6.36809L22.0042 7.1591L9.83167 7.1591L9.83167 6.36809Z" id="Path" fill="#BFC7D1" stroke="none" />
    <path d="M23.9721 11.3053L22.4688 12.9416C22.3878 13.0297 22.2512 13.0349 22.1639 12.9531L21.3793 12.2181C21.2414 12.0889 21.0171 12.1876 21.0171 12.3773L21.0171 16.5238C21.0171 16.6439 20.9205 16.7411 20.8014 16.7411L15.3057 16.7411C15.1867 16.7411 15.0901 16.6439 15.0901 16.5238L15.0901 12.3775C15.0901 12.1878 14.8657 12.0891 14.7279 12.2183L13.9437 12.9531C13.8566 13.0349 13.72 13.0297 13.639 12.9416L12.1353 11.3055C12.0541 11.2172 12.0595 11.0794 12.1474 10.9978L15.0283 8.32379C15.0682 8.28671 15.1203 8.26632 15.1743 8.26632L20.9331 8.26632C20.987 8.26632 21.0392 8.28671 21.0789 8.32379L23.9599 10.998C24.0477 11.0794 24.0531 11.2172 23.9721 11.3053L23.9721 11.3053Z" id="Path" fill="#6D6670" stroke="none" />
    <path d="M21.9525 11.3053L20.4492 12.9416C20.3682 13.0297 20.2317 13.0349 20.1443 12.9531L19.3597 12.2181C19.2219 12.0889 18.9976 12.1876 18.9976 12.3773L18.9976 16.5238C18.9976 16.6439 18.9012 16.7411 18.7821 16.7411L13.2862 16.7411C13.1671 16.7411 13.0707 16.6439 13.0707 16.5238L13.0707 12.3775C13.0707 12.1878 12.8462 12.0891 12.7084 12.2183L11.9244 12.9531C11.837 13.0349 11.7004 13.0297 11.6195 12.9416L10.1157 11.3055C10.0346 11.2172 10.0401 11.0794 10.1279 10.9978L13.0089 8.32379C13.0487 8.28671 13.1008 8.26632 13.1548 8.26632L18.9135 8.26632C18.9677 8.26632 19.0198 8.28671 19.0596 8.32379L21.9404 10.998C22.0281 11.0794 22.0335 11.2172 21.9525 11.3053L21.9525 11.3053Z" id="Path" fill="#FFD659" stroke="none" />
    <path d="M19.7006 11.3053L18.1973 12.9416C18.1163 13.0297 17.9797 13.0349 17.8926 12.9531L17.1078 12.2181C16.97 12.0889 16.7456 12.1876 16.7456 12.3773L16.7456 16.5238C16.7456 16.6439 16.6492 16.7411 16.5302 16.7411L11.0343 16.7411C10.9152 16.7411 10.8188 16.6439 10.8188 16.5238L10.8188 12.3775C10.8188 12.1878 10.5945 12.0891 10.4564 12.2183L9.67243 12.9531C9.58509 13.0349 9.44872 13.0297 9.36756 12.9416L7.86381 11.3055C7.78285 11.2172 7.78821 11.0794 7.87596 10.9978L10.757 8.32379C10.7967 8.28671 10.8489 8.26632 10.903 8.26632L16.6616 8.26632C16.7158 8.26632 16.7679 8.28671 16.8076 8.32379L19.6887 10.998C19.7762 11.0794 19.7818 11.2172 19.7006 11.3053L19.7006 11.3053Z" id="Path" fill="#FE5E70" stroke="none" />
    <path d="M13.9569 9.84196L13.6073 9.84196C12.7438 9.84196 12.0438 9.142 12.0438 8.27847L12.0438 8.26632L15.5206 8.26632L15.5206 8.27847C15.5206 9.142 14.8206 9.84196 13.9569 9.84196L13.9569 9.84196Z" id="Path" fill="#D43B4C" stroke="none" />
  </g>
</svg>