<?xml version="1.0" encoding="utf-8"?>
<svg width="31px" height="22px" viewBox="0 0 31 22" version="1.1" xmlns:xlink="http://www.w3.org/1999/xlink" xmlns="http://www.w3.org/2000/svg">
  <g id="iftar">
    <g id="Group" transform="translate(1.492308 1.103587)">
      <path d="M1.62442 16.6871L2.70171 16.6871L2.66508 16.6045C2.59099 16.4378 2.56105 16.2581 2.57837 16.0848C2.62521 15.6192 2.97905 15.2636 3.47988 15.1789L3.55696 15.1658L3.52297 15.0955C3.40644 14.854 3.37415 14.5892 3.43198 14.3497C3.54252 13.8918 3.95183 13.5843 4.45067 13.5843C4.49505 13.5843 4.54032 13.5867 4.58523 13.5915L4.66337 13.5999L4.64922 13.5226C4.60953 13.306 4.62779 13.0983 4.70353 12.9052C4.85399 12.5219 5.22139 12.2742 5.63956 12.2742C5.78598 12.2742 5.93333 12.3035 6.0774 12.3615L6.15038 12.3908L6.15777 12.3125C6.17351 12.1453 6.22082 11.9903 6.29855 11.8517C6.4789 11.5301 6.8035 11.338 7.16672 11.338C7.40032 11.338 7.64161 11.4238 7.84591 11.5794L7.90808 11.6268L7.93626 11.554C7.97765 11.4471 8.03237 11.3484 8.09877 11.2607C8.29614 11.0001 8.58939 10.8506 8.90335 10.8506C9.23282 10.8506 9.54527 11.0143 9.76043 11.2997L9.80734 11.3619L9.85424 11.2997C9.91424 11.22 9.98322 11.1486 10.0591 11.0873L10.0867 11.065L10.0798 11.0302C9.98264 10.5406 9.92428 10.0439 9.90632 9.55391C9.90356 9.47841 9.93109 9.40673 9.98375 9.35208C10.037 9.29689 10.1086 9.26642 10.1852 9.26642L10.8944 9.26642L11.7809 0.332227C11.7986 0.154284 11.6588 0 11.48 0L0.302445 0C0.123621 0 -0.016162 0.154284 0.00150902 0.332227L1.62442 16.6871Z" id="Path" fill="#FEF1DA" stroke="none" />
      <path d="M2.87719 3.82005L2.53111 0.332227C2.51343 0.154284 2.65322 0 2.83204 0L0.302445 0C0.123621 0 -0.016162 0.154284 0.00150902 0.332227L0.347591 3.82005L2.87719 3.82005Z" id="Path" fill="#FAE2C0" stroke="none" />
      <path d="M2.70165 16.6871L2.66502 16.6045C2.59093 16.4378 2.56099 16.2581 2.57831 16.0848C2.62516 15.6192 2.97899 15.2636 3.47982 15.1789L3.55691 15.1658L3.52291 15.0955C3.40638 14.854 3.37409 14.5892 3.43192 14.3497C3.54246 13.8918 3.95177 13.5843 4.45061 13.5843C4.495 13.5843 4.54026 13.5867 4.58517 13.5915L4.66331 13.5999L4.64916 13.5226C4.60948 13.306 4.62773 13.0983 4.70347 12.9052C4.85393 12.5219 5.22133 12.2742 5.6395 12.2742C5.78592 12.2742 5.93327 12.3035 6.07734 12.3615L6.15032 12.3908L6.15771 12.3125C6.17345 12.1453 6.22077 11.9903 6.2985 11.8517C6.47885 11.5301 6.80344 11.338 7.16666 11.338C7.40026 11.338 7.64155 11.4238 7.84585 11.5794L7.90803 11.6268L7.9362 11.554C7.97759 11.4471 8.03231 11.3484 8.09871 11.2607C8.29608 11.0001 8.58933 10.8506 8.9033 10.8506C9.23276 10.8506 9.54521 11.0143 9.76037 11.2997L9.80728 11.3619L9.85419 11.2997C9.91418 11.22 9.98317 11.1486 10.059 11.0873L10.0867 11.065L10.0797 11.0302C9.98258 10.5406 9.92422 10.0439 9.90626 9.55391C9.9035 9.47841 9.93103 9.40673 9.98369 9.35208C10.0369 9.29689 10.1085 9.26642 10.1852 9.26642L10.8943 9.26642L11.4348 3.82005L0.34765 3.82005L1.62442 16.6871L2.70165 16.6871Z" id="Path" fill="#8AC9FE" stroke="none" />
      <path d="M2.61136 16.6284C2.53075 16.447 2.50199 16.258 2.51995 16.0789C2.57026 15.5786 2.94805 15.2093 3.47008 15.121C3.33634 14.8439 3.31908 14.5669 3.37491 14.3359C3.44301 14.054 3.6182 13.8265 3.85608 13.6849L2.87719 3.82005L0.34765 3.82005L1.61861 16.6284L2.61136 16.6284Z" id="Path" fill="#60B7FF" stroke="none" />
    </g>
    <path d="M29.7205 10.3113L11.6775 10.3113C11.4869 10.3113 11.3329 10.4692 11.3399 10.6596C11.3593 11.1891 11.424 11.7068 11.5278 12.2104C11.7213 12.0455 11.9576 11.9542 12.2035 11.9542C12.5174 11.9542 12.8107 12.1037 13.008 12.3643C13.0744 12.452 13.1292 12.5507 13.1706 12.6577L13.1988 12.7305L13.261 12.6831C13.4652 12.5273 13.7065 12.4416 13.9402 12.4416C14.3034 12.4416 14.6279 12.6336 14.8083 12.9553C14.886 13.0939 14.9334 13.249 14.9491 13.4161L14.9565 13.4944L15.0295 13.4651C15.1735 13.4071 15.3208 13.3778 15.4673 13.3778C15.8855 13.3778 16.2528 13.6255 16.4032 14.0088C16.479 14.202 16.4973 14.4096 16.4576 14.6261L16.4434 14.7035L16.5216 14.6951C16.5665 14.6902 16.6118 14.6878 16.6563 14.6878C17.1549 14.6878 17.5642 14.9954 17.6748 15.4533C17.7327 15.6929 17.7004 15.9577 17.5838 16.1991L17.5498 16.2694L17.6269 16.2825C18.1277 16.3672 18.4816 16.7228 18.5284 17.1884C18.5458 17.361 18.5156 17.5408 18.4413 17.7081L18.4047 17.7907L21.7848 17.7907C22.2015 17.7907 22.5405 18.1296 22.5405 18.5463C22.5405 18.9631 22.2015 19.302 21.7848 19.302L20.4211 19.302L20.3997 19.3607C19.8048 20.9079 18.3056 21.9412 16.6427 21.9412L16.4969 21.9412L16.4969 21.9999L24.0643 21.9999C24.2506 21.9999 24.4016 21.8489 24.4016 21.6627L24.4016 19.1067C24.4016 18.9906 24.4705 18.8865 24.5762 18.8384C27.714 17.4094 29.925 14.2999 30.0581 10.6596C30.0651 10.4692 29.9111 10.3113 29.7205 10.3113L29.7205 10.3113Z" id="Path" fill="#80D261" stroke="none" />
    <path d="M12.2035 11.8955C12.536 11.8955 12.8462 12.0534 13.0548 12.3288C13.0642 12.3412 13.0726 12.3542 13.0815 12.3668L14.0701 12.3668C13.9464 11.8146 13.8712 11.244 13.8498 10.6596C13.8429 10.4692 13.9969 10.3113 14.1874 10.3113L11.6775 10.3113C11.4869 10.3113 11.3329 10.4692 11.3399 10.6596C11.3585 11.1663 11.4186 11.6622 11.5145 12.1452C11.7229 11.9769 11.9667 11.8955 12.2035 11.8955L12.2035 11.8955Z" id="Path" fill="#4FC123" stroke="none" />
    <path d="M13.0099 12.3668C13.0754 12.454 13.1296 12.5517 13.1706 12.6577L13.1988 12.7305L13.261 12.6831C13.4652 12.5273 13.7065 12.4416 13.9402 12.4416C14.3034 12.4416 14.6279 12.6336 14.8082 12.9553C14.886 13.0939 14.9334 13.249 14.9491 13.4161L14.9565 13.4944L15.0295 13.4651C15.1735 13.4071 15.3208 13.3778 15.4673 13.3778C15.8855 13.3778 16.2528 13.6255 16.4032 14.0088C16.4511 14.1308 16.4758 14.2585 16.4778 14.3905L29.1308 14.3905C29.4398 13.753 29.6786 13.0751 29.8372 12.3669L13.0099 12.3669L13.0099 12.3668Z" id="Path" fill="#FED402" stroke="none" />
    <g id="Group" transform="translate(0 11.895469)">
      <path d="M18.4675 5.89519C18.5694 5.69617 18.6068 5.48547 18.5868 5.28704C18.5365 4.78673 18.1587 4.41746 17.6367 4.32916C17.7705 4.05206 17.7877 3.77508 17.7319 3.54407C17.6148 3.05932 17.1826 2.73366 16.6563 2.73366C16.6127 2.73366 16.5657 2.73584 16.5154 2.74124C16.5564 2.51774 16.5385 2.29741 16.4579 2.09193C16.2986 1.68591 15.9098 1.4236 15.4673 1.4236C15.3117 1.4236 15.1572 1.45495 15.0076 1.51513C14.9912 1.34147 14.942 1.17844 14.8594 1.03114C14.6685 0.690696 14.3249 0.487391 13.9401 0.487391C13.7141 0.487391 13.4595 0.56242 13.2253 0.74095C13.182 0.629346 13.1252 0.526373 13.0548 0.43338C12.8461 0.157924 12.5359 0 12.2034 0C11.8789 0 11.541 0.152112 11.2995 0.472479C11.058 0.152112 10.7201 0 10.3956 0C10.0631 0 9.75287 0.157924 9.54423 0.43338C9.47383 0.526314 9.41701 0.629288 9.37374 0.740891C9.13944 0.56242 8.88494 0.487391 8.65891 0.487391C8.27414 0.487391 7.93047 0.690637 7.73955 1.03114C7.65701 1.17838 7.60781 1.34153 7.59149 1.51513C7.44179 1.45495 7.28738 1.4236 7.13175 1.4236C6.68921 1.4236 6.30039 1.68591 6.14106 2.09187C6.06045 2.29741 6.04261 2.51768 6.08364 2.74124C6.03327 2.7359 5.98625 2.73366 5.9428 2.73366C5.41643 2.73366 4.98417 3.05932 4.8671 3.54407C4.81127 3.77502 4.82853 4.05206 4.96227 4.32916C4.44024 4.41746 4.06245 4.78673 4.01214 5.28704C3.99224 5.48547 4.02964 5.69611 4.13149 5.89519L18.4675 5.89519Z" id="Path" fill="#FFFFFF" stroke="none" />
      <path d="M6.5981 5.83648C6.97183 3.2116 10.2378 1.08574 14.463 0.626411C14.3074 0.536529 14.1288 0.487391 13.9402 0.487391C13.7141 0.487391 13.4596 0.56242 13.2254 0.74095C13.1821 0.629346 13.1252 0.526373 13.0548 0.43338C12.8462 0.157924 12.536 0 12.2035 0C11.879 0 11.5411 0.152112 11.2996 0.472479C11.0581 0.152112 10.7202 0 10.3957 0C10.0633 0 9.75293 0.157924 9.54428 0.43338C9.47389 0.526314 9.41706 0.629288 9.37386 0.740891C9.13955 0.56242 8.88506 0.487391 8.65903 0.487391C8.27426 0.487391 7.93059 0.690637 7.73967 1.03114C7.65707 1.17838 7.60793 1.34153 7.59161 1.51513C7.4419 1.45495 7.2875 1.4236 7.13187 1.4236C6.68933 1.4236 6.30051 1.68591 6.14118 2.09187C6.06057 2.29741 6.04272 2.51768 6.08376 2.74124C6.03339 2.7359 5.98631 2.73366 5.94292 2.73366C5.41655 2.73366 4.98428 3.05932 4.86722 3.54407C4.81145 3.77502 4.82865 4.05206 4.96238 4.32916C4.44036 4.41746 4.06257 4.78673 4.01226 5.28704C3.99429 5.46604 4.02312 5.65502 4.10367 5.83648L6.5981 5.83648Z" id="Path" fill="#F3F0F3" stroke="none" />
      <path d="M2.115 7.40656C2.69738 9.02085 4.231 10.1045 5.95654 10.1045L16.6427 10.1045C18.3682 10.1045 19.9018 9.02085 20.4842 7.40656L2.115 7.40656Z" id="Path" fill="#FD4755" stroke="none" />
      <path d="M5.28205 7.46527L2.13661 7.46527C2.73466 9.04709 4.25202 10.1045 5.95654 10.1045L9.10192 10.1045C7.3974 10.1045 5.88004 9.04703 5.28205 7.46527Z" id="Path" fill="#FB2B3A" stroke="none" />
      <path d="M21.7848 7.46527L0.814393 7.46527C0.364633 7.46527 0 7.10064 0 6.65088C0 6.20112 0.364633 5.83648 0.814393 5.83648L21.7849 5.83648C22.2347 5.83648 22.5993 6.20112 22.5993 6.65088C22.5992 7.10064 22.2347 7.46527 21.7848 7.46527Z" id="Path" fill="#FD8087" stroke="none" />
      <path d="M3.80009 6.65088C3.80009 6.20112 4.16472 5.83648 4.61448 5.83648L0.814393 5.83648C0.364633 5.83648 0 6.20106 0 6.65088C0 7.10064 0.364633 7.46527 0.814393 7.46527L4.61448 7.46527C4.16466 7.46527 3.80009 7.10064 3.80009 6.65088Z" id="Path" fill="#FE646F" stroke="none" />
      <g id="Group" transform="translate(6.7534385 2.4025533)">
        <path d="M4.03721 0.880615L3.35855 0.880615C3.11532 0.880615 2.91824 0.683534 2.91824 0.440308C2.91824 0.197082 3.11532 0 3.35855 0L4.03721 0C4.28044 0 4.47752 0.197082 4.47752 0.440308C4.47752 0.683534 4.28038 0.880615 4.03721 0.880615Z" id="Path" fill="#CBC4CC" stroke="none" />
        <path d="M7.29472 1.83074L6.61606 1.83074C6.37284 1.83074 6.17576 1.63366 6.17576 1.39043C6.17576 1.14721 6.37284 0.950125 6.61606 0.950125L7.29472 0.950125C7.53795 0.950125 7.73503 1.14721 7.73503 1.39043C7.73503 1.63366 7.53795 1.83074 7.29472 1.83074Z" id="Path" fill="#CBC4CC" stroke="none" />
        <path d="M1.11897 2.17007L0.440308 2.17007C0.197082 2.17007 0 1.97299 0 1.72976C0 1.48654 0.197082 1.28946 0.440308 1.28946L1.11897 1.28946C1.36219 1.28946 1.55928 1.48654 1.55928 1.72976C1.55928 1.97299 1.36214 2.17007 1.11897 2.17007Z" id="Path" fill="#CBC4CC" stroke="none" />
      </g>
    </g>
    <path d="M17.1975 8.82059C16.9543 8.82059 16.7572 8.62351 16.7572 8.38029L16.7572 7.54922C16.7572 6.74628 17.4104 6.09309 18.2133 6.09309L22.5226 6.09309C22.8399 6.09309 23.0981 5.83496 23.0981 5.51764C23.0981 5.20033 22.8399 4.94213 22.5226 4.94213L18.8288 4.94213C18.026 4.94213 17.3728 4.28895 17.3728 3.48606C17.3728 2.68318 18.026 2.02999 18.8288 2.02999L22.2263 2.02999C22.4695 2.02999 22.6666 2.22708 22.6666 2.4703C22.6666 2.71353 22.4695 2.91061 22.2263 2.91061L18.8288 2.91061C18.5116 2.91061 18.2534 3.16875 18.2534 3.48606C18.2534 3.80338 18.5115 4.06151 18.8288 4.06151L22.5226 4.06151C23.3254 4.06151 23.9787 4.71476 23.9787 5.51764C23.9787 6.32053 23.3254 6.97371 22.5226 6.97371L18.2133 6.97371C17.896 6.97371 17.6378 7.23185 17.6378 7.54922L17.6378 8.38029C17.6378 8.62345 17.4406 8.82059 17.1975 8.82059Z" id="Path" fill="#FAC600" stroke="none" />
    <path d="M27.3833 2.90427L24.3478 2.90427C24.1046 2.90427 23.9075 2.70719 23.9075 2.46396C23.9075 2.22074 24.1046 2.02365 24.3478 2.02365L27.3833 2.02365C27.6985 2.02365 27.9548 1.76728 27.9548 1.45213C27.9548 1.13699 27.6985 0.880615 27.3833 0.880615L25.3597 0.880615C25.1164 0.880615 24.9194 0.683534 24.9194 0.440308C24.9194 0.197082 25.1164 0 25.3597 0L27.3833 0C28.184 0 28.8355 0.651479 28.8355 1.45213C28.8355 2.25279 28.184 2.90427 27.3833 2.90427L27.3833 2.90427Z" id="Path" fill="#FAC600" stroke="none" />
  </g>
</svg>