<?xml version="1.0" encoding="utf-8"?>
<svg width="29px" height="27px" viewBox="0 0 29 27" version="1.1" xmlns:xlink="http://www.w3.org/1999/xlink" xmlns="http://www.w3.org/2000/svg">
  <g id="bathtub">
    <path d="M7.71429 23.224L7.55327 24.0291L7.18954 25.9586C7.07625 26.5598 6.49252 27 5.80887 27L4.69719 27C4.23327 27 3.85714 26.6647 3.85714 26.251C3.85714 25.8374 4.23321 25.5021 4.69719 25.5021L5.3567 25.5021C5.49331 25.5021 5.60996 25.4142 5.63274 25.2941L5.87324 24.0291L6.04822 23.1429L7.71429 23.224Z" id="Path" fill="#CC9E75" stroke="none" />
    <path d="M22.6248 23.7433L22.8706 25.13C22.894 25.2616 23.0132 25.3579 23.1528 25.3579L23.827 25.3579C24.3012 25.3579 24.6857 25.7255 24.6857 26.179C24.6857 26.6324 24.3013 27 23.827 27L22.6906 27C21.9917 27 21.395 26.5174 21.2792 25.8584L20.9074 23.7433L20.8286 23.1429L22.5316 23.2207L22.6248 23.7433Z" id="Path" fill="#CC9E75" stroke="none" />
    <path d="M27.3213 15.4286C27.0728 15.4286 26.8714 15.2335 26.8714 14.9928L26.8714 1.59806C26.8714 1.1975 26.5349 0.871687 26.1214 0.871687L24.0214 0.871687C23.6078 0.871687 23.2714 1.19756 23.2714 1.59806L23.2714 3.54479C23.2714 3.78549 23.0699 3.39954 22.8214 3.39954C22.5729 3.39954 22.3714 3.78555 22.3714 3.54479L22.3714 1.59806C22.3714 0.716901 23.1116 0 24.0214 0L26.1214 0C27.0312 0 27.7714 0.716901 27.7714 1.59806L27.7714 14.9928C27.7714 15.2335 27.5699 15.4286 27.3213 15.4286L27.3213 15.4286Z" id="Path" fill="#D3D3D3" stroke="none" />
    <path d="M1.54286 20.3414C1.54286 22.3146 3.07275 23.9143 4.95993 23.9143L23.5829 23.9143C25.4701 23.9143 27 22.3146 27 20.3414L27 15.4286L1.54286 15.4286L1.54286 20.3414Z" id="Path" fill="#BDE0F2" stroke="none" />
    <path d="M27 16.9714L27 20.5817C27 22.4224 25.3884 23.9143 23.4 23.9143L21.6 23.9143C23.5884 23.9143 25.2 22.4224 25.2 20.5817L25.2 16.9714L27 16.9714Z" id="Path" fill="#7FC6DD" stroke="none" />
    <path d="M27.5378 16.2L1.00502 16.2C0.44994 16.2 0 15.8546 0 15.4285C0 15.0025 0.44994 14.6571 1.00502 14.6571L27.5378 14.6571C28.0929 14.6571 28.5429 15.0025 28.5429 15.4285C28.5429 15.8546 28.0929 16.2 27.5378 16.2Z" id="Path" fill="#83C8DB" stroke="none" />
    <path d="M28.5429 15.4285C28.5429 15.6415 28.4155 15.8345 28.2096 15.9743C28.0036 16.1136 27.7197 16.2 27.406 16.2L25.4571 16.2C25.7709 16.2 26.0548 16.1136 26.2607 15.9743C26.4667 15.8345 26.594 15.6415 26.594 15.4285C26.594 15.0027 26.0847 14.6571 25.4571 14.6571L27.406 14.6571C28.0335 14.6571 28.5429 15.0028 28.5429 15.4285Z" id="Path" fill="#56A9B7" stroke="none" />
    <path d="M23.9143 6.17143L20.8286 6.17143L20.8286 4.76569C20.8286 3.83787 21.5193 3.08571 22.3714 3.08571C23.2235 3.08571 23.9142 3.83787 23.9142 4.76569L23.9142 6.17143L23.9143 6.17143Z" id="Path" fill="#B7B7B7" stroke="none" />
    <path d="M24.6857 4.76572L24.6857 6.17143L22.928 6.17143L22.928 4.76572C22.928 4.30152 22.7675 3.88185 22.5074 3.57807C22.4646 3.52801 22.4195 3.48135 22.3714 3.43816C22.614 3.21664 22.9192 3.08571 23.2503 3.08571C23.6464 3.08571 24.0055 3.27362 24.2651 3.57807C24.5252 3.88185 24.6857 4.30152 24.6857 4.76572L24.6857 4.76572Z" id="Path" fill="#A0A0A0" stroke="none" />
    <path d="M3.85777 0.771429C3.80633 0.771429 6.94286 0.771429 6.94286 0.771429L6.94286 19.5429C6.94286 20.2529 6.25221 20.8286 5.40031 20.8286C4.54842 20.8286 3.85777 20.2529 3.85777 19.5429L3.85777 0.771429Z" id="Path" fill="#FCD87E" stroke="none" />
    <path d="M6.17143 0.771429L9.25714 0.771429L9.25714 19.5429C9.25714 20.2529 8.56635 20.8286 7.71429 20.8286C6.86222 20.8286 6.17143 20.2529 6.17143 19.5429L6.17143 0.771429Z" id="Path" fill="#FFFFFF" stroke="none" />
    <path d="M9.25714 0.771429L12.3429 0.771429L12.3429 19.5429C12.3429 20.2529 11.6521 20.8286 10.8 20.8286C9.94793 20.8286 9.25714 20.2529 9.25714 19.5429L9.25714 0.771429Z" id="Path" fill="#FCD87E" stroke="none" />
    <path d="M11.5714 0.771429L14.6571 0.771429L14.6571 19.5429C14.6571 20.2529 13.9664 20.8286 13.1143 20.8286C12.2622 20.8286 11.5714 20.2529 11.5714 19.5429L11.5714 0.771429Z" id="Path" fill="#FFFFFF" stroke="none" />
    <path d="M13.8857 0.771429L16.9714 0.771429L16.9714 19.5429C16.9714 20.2529 16.2806 20.8286 15.4286 20.8286C14.5765 20.8286 13.8857 20.2529 13.8857 19.5429L13.8857 0.771429Z" id="Path" fill="#FCD87E" stroke="none" />
    <g id="Group" transform="translate(20.828571 8.485714)">
      <path d="M0.385699 1.52114C0.172631 1.52114 0 1.33873 0 1.11371L0 0.407431C0 0.18241 0.172681 0 0.385699 0C0.598718 0 0.771399 0.18241 0.771399 0.407431L0.771399 1.11366C0.771449 1.33868 0.598767 1.52114 0.385699 1.52114Z" id="Path" fill="#56A9B7" stroke="none" />
      <path d="M1.9286 1.52114C1.71553 1.52114 1.5429 1.33873 1.5429 1.11371L1.5429 0.407431C1.5429 0.18241 1.71558 0 1.9286 0C2.14161 0 2.3143 0.18241 2.3143 0.407431L2.3143 1.11366C2.3143 1.33868 2.14166 1.52114 1.9286 1.52114Z" id="Path" fill="#56A9B7" stroke="none" />
      <path d="M3.47144 1.52114C3.25838 1.52114 3.08574 1.33873 3.08574 1.11371L3.08574 0.407431C3.08574 0.18241 3.25843 0 3.47144 0C3.68446 0 3.85714 0.18241 3.85714 0.407431L3.85714 1.11366C3.85719 1.33868 3.68451 1.52114 3.47144 1.52114Z" id="Path" fill="#56A9B7" stroke="none" />
      <path d="M0.385699 3.85714C0.172631 3.85714 0 3.67473 0 3.44971L0 2.74349C0 2.51847 0.172681 2.33605 0.385699 2.33605C0.598718 2.33605 0.771399 2.51847 0.771399 2.74349L0.771399 3.44971C0.771449 3.67473 0.598767 3.85714 0.385699 3.85714Z" id="Path" fill="#56A9B7" stroke="none" />
      <path d="M1.9286 3.85714C1.71553 3.85714 1.5429 3.67473 1.5429 3.44971L1.5429 2.74349C1.5429 2.51847 1.71558 2.33605 1.9286 2.33605C2.14161 2.33605 2.3143 2.51847 2.3143 2.74349L2.3143 3.44971C2.3143 3.67473 2.14166 3.85714 1.9286 3.85714Z" id="Path" fill="#56A9B7" stroke="none" />
      <path d="M3.47144 3.85714C3.25838 3.85714 3.08574 3.67473 3.08574 3.44971L3.08574 2.74349C3.08574 2.51847 3.25843 2.33605 3.47144 2.33605C3.68446 2.33605 3.85714 2.51847 3.85714 2.74349L3.85714 3.44971C3.85719 3.67473 3.68451 3.85714 3.47144 3.85714Z" id="Path" fill="#56A9B7" stroke="none" />
    </g>
    <path d="M19.1893 0C18.8689 0 18.5892 0.150488 18.4388 0.37325L3.12499 0.37325C2.9683 0.178074 2.7067 0.0497602 2.41073 0.0497602C1.93217 0.0497602 1.54286 0.384651 1.54286 0.796309C1.54286 1.20797 1.93217 1.54286 2.41073 1.54286C2.75444 1.54286 3.0512 1.36966 3.19166 1.1198L18.4388 1.1198C18.5892 1.34256 18.8689 1.49305 19.1893 1.49305C19.6678 1.49305 20.0571 1.15816 20.0571 0.7465C20.0571 0.334843 19.6678 8.58174e-17 19.1893 0Z" id="Path" fill="#CC9E75" stroke="none" />
    <path d="M24.0596 6.94286L21.4547 6.94286C21.1089 6.94286 20.8286 6.59749 20.8286 6.17143C20.8286 5.74537 21.1089 5.4 21.4547 5.4L24.0596 5.4C24.4054 5.4 24.6857 5.74537 24.6857 6.17143C24.6857 6.59743 24.4054 6.94286 24.0596 6.94286Z" id="Path" fill="#A5A5A5" stroke="none" />
    <path d="M24.6857 6.1714C24.6857 6.3843 24.6095 6.57684 24.4864 6.71696C24.3634 6.85641 24.1929 6.94286 24.005 6.94286L22.3714 6.94286C22.5593 6.94286 22.7298 6.85647 22.8528 6.71696C22.9759 6.5769 23.0521 6.3843 23.0521 6.1714C23.0521 5.74559 22.7472 5.4 22.3714 5.4L24.005 5.4C24.3808 5.4 24.6857 5.74559 24.6857 6.1714L24.6857 6.1714Z" id="Path" fill="#8E8E8E" stroke="none" />
  </g>
</svg>