<?xml version="1.0" encoding="utf-8"?>
<svg width="23px" height="23px" viewBox="0 0 23 23" version="1.1" xmlns:xlink="http://www.w3.org/1999/xlink" xmlns="http://www.w3.org/2000/svg">
  <g id="newspaper">
    <path d="M21.6269 23L1.60199 23C0.717235 23 1.77857e-16 22.2898 0 21.4138L0 0L16.8209 0L21.6269 4.75862L21.6269 23Z" id="Path" fill="#E5E4D1" stroke="none" />
    <path d="M20.9403 4.46269L16.4776 4.46269L16.4776 0L20.9403 4.46269Z" id="Path" fill="#C6C3A7" stroke="none" />
    <path d="M17.5075 0.686567L21.6269 0.686567L21.6269 4.80597L17.5075 0.686567Z" id="Path" fill="#E5E4D1" stroke="none" />
    <path d="M21.6269 1.71642L23 1.71642L23 21.3937C23 22.2808 22.3852 23 21.6269 23L21.6269 1.71642Z" id="Path" fill="#D3D1B6" stroke="none" />
    <g id="Group" transform="translate(1.3731344 1.0298507)">
      <path d="M2.73673 3.29552L2.61671 3.29552L1.44382 0L0 0L0 4.1194L0.781924 4.1194L0.781924 0.823881L0.901949 0.823881L2.07483 4.1194L3.51866 4.1194L3.51866 0L2.73673 0L2.73673 3.29552Z" id="Path" fill="#D75745" stroke="none" />
      <path d="M10.165 3.29552L10.0387 3.29552L9.35533 1.49493C9.29609 1.33825 9.15219 1.23544 8.99212 1.23544C8.83206 1.23544 8.68816 1.33825 8.62892 1.49493L7.94552 3.29552L7.81924 3.29552L7.81924 7.31753e-16L7.03731 7.31753e-16L7.03731 3.70746C7.03731 3.93497 7.21235 4.1194 7.42828 4.1194L8.2102 4.1194C8.37018 4.11946 8.51405 4.01683 8.5734 3.86029L8.99212 2.7567L9.41084 3.86029C9.47019 4.01683 9.61407 4.11946 9.77405 4.1194L10.556 4.1194C10.7719 4.1194 10.9469 3.93497 10.9469 3.70746L10.9469 0L10.165 0L10.165 3.29552Z" id="Path" fill="#D75745" stroke="none" />
      <path d="M4.30058 4.1194L6.25539 4.1194L6.25539 3.29552L5.0825 3.29552L5.0825 2.47164L6.25539 2.47164L6.25539 1.64776L5.0825 1.64776L5.0825 0.823881L6.25539 0.823881L6.25539 0L4.30058 0L4.30058 4.1194Z" id="Path" fill="#D75745" stroke="none" />
      <path d="M14.0746 0.823881L14.0746 0L12.1198 0C11.9039 0 11.7289 0.184432 11.7289 0.41194L11.7289 2.0597C11.7289 2.28721 11.9039 2.47164 12.1198 2.47164L13.2927 2.47164L13.2927 3.29552L11.7289 3.29552L11.7289 4.1194L13.6837 4.1194C13.8996 4.1194 14.0746 3.93497 14.0746 3.70746L14.0746 2.0597C14.0746 1.83219 13.8996 1.64776 13.6837 1.64776L12.5108 1.64776L12.5108 0.823881L14.0746 0.823881Z" id="Path" fill="#D75745" stroke="none" />
    </g>
    <path d="M1.37313 5.83582L20.2537 5.83582L20.2537 6.52239L1.37313 6.52239L1.37313 5.83582Z" id="Path" fill="#2D75BB" stroke="none" />
    <path d="M1.37313 8.23881L10.2985 8.23881L10.2985 12.7015L1.37313 12.7015L1.37313 8.23881Z" id="Path" fill="#F9BB4B" stroke="none" />
    <path d="M1.37313 15.791L6.86567 15.791L6.86567 16.4776L1.37313 16.4776L1.37313 15.791Z" id="Path" fill="#394D5C" stroke="none" />
    <path d="M1.02985 14.4179L10.6418 14.4179L10.6418 15.1045L1.02985 15.1045L1.02985 14.4179Z" id="Path" fill="#394D5C" stroke="none" />
    <path d="M1.37313 17.5075L10.2985 17.5075L10.2985 18.194L1.37313 18.194L1.37313 17.5075Z" id="Path" fill="#394D5C" stroke="none" />
    <path d="M19.5672 17.8507L14.0746 17.8507L14.0746 14.7612L19.5672 14.7612L19.5672 17.8507Z" id="Path" fill="#F9BB4B" stroke="none" />
    <path d="M19.9104 20.9403L1.37313 20.9403L1.37313 19.5672L19.9104 19.5672L19.9104 20.9403Z" id="Path" fill="#2D75BB" stroke="none" />
    <path d="M11.6716 8.23881L19.5672 8.23881L19.5672 9.61194L11.6716 9.61194L11.6716 8.23881Z" id="Path" fill="#F9BB4B" stroke="none" />
    <path d="M11.6716 11.3284L19.5672 11.3284L19.5672 12.7015L11.6716 12.7015L11.6716 11.3284Z" id="Path" fill="#F9BB4B" stroke="none" />
    <path d="M11.3284 14.4179L12.7015 14.4179L12.7015 15.1045L11.3284 15.1045L11.3284 14.4179Z" id="Path" fill="#394D5C" stroke="none" />
    <path d="M7.55224 15.791L13.0448 15.791L13.0448 16.4776L7.55224 16.4776L7.55224 15.791Z" id="Path" fill="#394D5C" stroke="none" />
    <path d="M10.6418 17.5075L13.0448 17.5075L13.0448 18.194L10.6418 18.194L10.6418 17.5075Z" id="Path" fill="#394D5C" stroke="none" />
  </g>
</svg>