<?xml version="1.0" encoding="utf-8"?>
<svg width="31px" height="27px" viewBox="0 0 31 27" version="1.1" xmlns:xlink="http://www.w3.org/1999/xlink" xmlns="http://www.w3.org/2000/svg">
  <g id="conversation">
    <path d="M16.8187 0L2.91206 0C1.30367 0 0 1.28764 0 2.87625L0 10.7736C0 12.1338 0.9561 13.2727 2.24042 13.5721C2.24111 13.7761 2.23029 13.982 2.20403 14.1899C2.06998 15.2453 1.59964 16.1774 0.913259 16.896C0.974296 16.9058 1.03556 16.9158 1.09752 16.9235C3.4538 17.2154 5.6272 15.797 6.34214 13.6499L16.8187 13.6499C18.4269 13.6499 19.7308 12.3622 19.7308 10.7736L19.7308 2.87625C19.7308 1.28764 18.4269 3.31053e-15 16.8187 0Z" id="Path" fill="#FED89B" stroke="none" />
    <path d="M1.03846 16.914C1.0554 16.9164 1.07188 16.9197 1.0886 16.9218C3.39885 17.2269 5.52979 15.7445 6.23077 13.5L4.92569 13.5C4.35434 15.3296 2.83269 16.6524 1.03846 16.914L1.03846 16.914Z" id="Path" fill="#D69E5B" stroke="none" />
    <path d="M16.6424 0L15.2308 0C16.9365 0 18.3194 1.2735 18.3194 2.84468L18.3194 10.6553C18.3194 12.2265 16.9365 13.5 15.2308 13.5L16.6424 13.5C18.3479 13.5 19.7308 12.2265 19.7308 10.6553L19.7308 2.84468C19.7308 1.2735 18.3479 0 16.6424 0Z" id="Path" fill="#D69E5B" stroke="none" />
    <path d="M14.7989 4.5L4.58569 4.5C4.34727 4.5 4.15385 4.26743 4.15385 3.98077C4.15385 3.69384 4.34727 3.46154 4.58569 3.46154L14.7989 3.46154C15.0373 3.46154 15.2308 3.69384 15.2308 3.98077C15.2308 4.26743 15.0373 4.5 14.7989 4.5Z" id="Path" fill="#E6F6FC" stroke="none" />
    <path d="M26.9757 23.5765C28.8935 22.3535 30.1154 20.5055 30.1154 18.4374C30.1154 14.7546 26.241 11.7692 21.4617 11.7692C16.6823 11.7692 12.8077 14.7546 12.8077 18.4374C12.8077 22.12 16.6823 25.1054 21.4617 25.1054C22.1651 25.1054 22.8491 25.0403 23.504 24.9181C24.5012 26.3479 26.2493 27.1932 28.113 26.9622C28.1747 26.9545 28.2356 26.9447 28.2966 26.9348C27.6133 26.2187 27.1449 25.2901 27.0117 24.2386C26.9832 24.0158 26.9729 23.795 26.9757 23.5765L26.9757 23.5765Z" id="Path" fill="#C8DB74" stroke="none" />
    <path d="M22.8462 11.8812C22.3435 11.808 21.8255 11.7692 21.2961 11.7692C16.6082 11.7692 12.8077 14.7715 12.8077 18.4751C12.8077 18.4909 12.8084 18.5064 12.8086 18.5221C13.8011 19.267 14.9056 20.0151 15.3973 20.3436C15.5556 20.4496 15.7598 20.4496 15.9184 20.3436C16.6752 19.838 18.8849 18.3377 19.9019 17.3855C20.9763 16.3799 21.9463 15.2126 22.4685 13.828C22.7015 13.2103 22.8349 12.5438 22.8462 11.8812Z" id="Path" fill="#98AF52" stroke="none" />
    <path d="M26.753 23.5765C28.5954 22.3534 29.7692 20.5054 29.7692 18.4374C29.7692 14.7546 26.0472 11.7692 21.4557 11.7692C21.3416 11.7692 21.2284 11.7717 21.1154 11.7754C25.2007 11.9184 28.4621 14.8462 28.4621 18.4374C28.4621 20.5054 27.3805 22.3534 25.6829 23.5765C25.6804 23.795 25.6897 24.0157 25.7148 24.2386C25.8329 25.29 26.2474 26.2187 26.8521 26.9347C26.7983 26.9447 26.7444 26.9546 26.6897 26.9623C26.6873 26.9626 26.6851 26.9628 26.6829 26.963C27.0607 27.0115 27.4504 27.0133 27.8455 26.9623C27.9048 26.9546 27.9634 26.9447 28.022 26.9347C27.3656 26.2187 26.9155 25.29 26.7873 24.2386C26.7602 24.0157 26.7503 23.795 26.753 23.5765L26.753 23.5765Z" id="Path" fill="#98AF52" stroke="none" />
    <g id="Group" transform="translate(4.1538463 6.576923)">
      <path d="M7.7071 0.872017L0.434522 0.872017C0.194629 0.872017 0 0.676949 0 0.436009C0 0.195296 0.194629 0 0.434522 0L7.7071 0C7.94699 0 8.14162 0.195296 8.14162 0.436009C8.14162 0.676949 7.94699 0.872017 7.7071 0.872017Z" id="Path" fill="#E6F6FC" stroke="none" />
      <path d="M5.89931 4.11597L0.434522 4.11597C0.19463 4.11597 0 3.9209 0 3.67996C0 3.43902 0.19463 3.24395 0.434522 3.24395L5.89954 3.24395C6.13943 3.24395 6.33406 3.43902 6.33406 3.67996C6.33406 3.9209 6.13943 4.11597 5.89931 4.11597Z" id="Path" fill="#E6F6FC" stroke="none" />
      <path d="M20.3347 9.89263L13.6682 9.89263C13.4283 9.89263 13.2337 9.69733 13.2337 9.45662C13.2337 9.21568 13.4283 9.02061 13.6682 9.02061L20.3347 9.02061C20.5746 9.02061 20.7692 9.21568 20.7692 9.45662C20.7692 9.69733 20.5746 9.89263 20.3347 9.89263L20.3347 9.89263ZM20.7692 11.6065C20.7692 11.3655 20.5746 11.1705 20.3347 11.1705L13.6682 11.1705C13.4283 11.1705 13.2337 11.3655 13.2337 11.6065C13.2337 11.8472 13.4283 12.0425 13.6682 12.0425L20.3347 12.0425C20.5746 12.0425 20.7692 11.8472 20.7692 11.6065L20.7692 11.6065ZM17.6479 13.7563C17.6479 13.5154 17.4533 13.3203 17.2134 13.3203L13.6682 13.3203C13.4283 13.3203 13.2337 13.5154 13.2337 13.7563C13.2337 13.9972 13.4283 14.1923 13.6682 14.1923L17.2134 14.1923C17.4533 14.1923 17.6479 13.997 17.6479 13.7563L17.6479 13.7563Z" id="Shape" fill="#E6F6FC" stroke="none" />
    </g>
    <path d="M17.7788 18C17.5187 18 17.3077 18.2324 17.3077 18.5194C17.3077 18.805 17.517 19.0366 17.7756 19.0385C18.2104 18.6952 18.6474 18.3387 19.0385 18L17.7788 18Z" id="Path" fill="#C2F4FF" stroke="none" />
    <path d="M17.3077 16.0962C17.3077 16.3828 17.5224 16.6154 17.7871 16.6154L20.6249 16.6154C20.9192 16.2836 21.2001 15.9377 21.4615 15.5769L17.7871 15.5769C17.5224 15.5769 17.3077 15.8092 17.3077 16.0962L17.3077 16.0962Z" id="Path" fill="#C2F4FF" stroke="none" />
    <path d="M14.6224 18.6134C14.4661 18.7186 14.2645 18.7186 14.1083 18.6134C13.3611 18.1106 11.1801 16.6189 10.1763 15.6723C9.11592 14.6724 8.15851 13.5119 7.64329 12.1354C7.12785 10.7589 7.10388 9.1376 7.83175 7.86487C8.42888 6.82081 9.51393 6.08383 10.6875 5.91998C12.0638 5.7278 13.5176 6.32995 14.3653 7.45559C15.2133 6.32995 16.667 5.7278 18.0433 5.91998C19.2167 6.08383 20.3018 6.82081 20.8989 7.86487C21.6268 9.1376 21.603 10.7589 21.0876 12.1354C20.5721 13.5119 19.6147 14.6724 18.5546 15.6723C17.5505 16.6189 15.3696 18.1106 14.6224 18.6134Z" id="Path" fill="#EA6789" stroke="none" />
    <path d="M21.5937 7.86353C20.9993 6.81934 19.9191 6.08226 18.751 5.91839C18.6131 5.89889 18.4745 5.88802 18.336 5.88462C19.122 6.21802 19.8053 6.8105 20.2345 7.5648C20.9591 8.83746 20.9354 10.4592 20.4223 11.8359C19.9092 13.2126 18.9561 14.3733 17.9006 15.3732C16.9813 16.2438 15.0718 17.5752 14.1923 18.1745C14.4535 18.3553 14.6758 18.5067 14.8336 18.6133C14.9892 18.7187 15.1898 18.7187 15.3454 18.6133C16.0892 18.1105 18.2604 16.6187 19.2597 15.672C20.3153 14.672 21.2684 13.5113 21.7816 12.1346C22.2947 10.7579 22.3183 9.13642 21.5937 7.86353Z" id="Path" fill="#C7416A" stroke="none" />
    <path d="M26.8898 8.65385L25.0333 8.65385C24.7813 8.65385 24.5769 8.42127 24.5769 8.13461C24.5769 7.84769 24.7813 7.61538 25.0333 7.61538L26.8898 7.61538C27.1417 7.61538 27.3462 7.84769 27.3462 8.13461C27.3462 8.42127 27.1417 8.65385 26.8898 8.65385Z" id="Path" fill="#7D8EB0" stroke="none" />
    <path d="M23.9645 5.88462C23.8556 5.88462 23.7464 5.84313 23.6632 5.75994C23.4969 5.59357 23.4969 5.32382 23.6632 5.15744L24.8884 3.93247C25.0545 3.7661 25.3242 3.7661 25.4906 3.93247C25.657 4.09885 25.657 4.3686 25.4906 4.53475L24.2655 5.75994C24.1825 5.84313 24.0734 5.88462 23.9645 5.88462L23.9645 5.88462Z" id="Path" fill="#7D8EB0" stroke="none" />
    <path d="M21.6346 5.19231C21.348 5.19231 21.1154 4.98812 21.1154 4.73592L21.1154 2.87947C21.1154 2.6275 21.348 2.42308 21.6346 2.42308C21.9215 2.42308 22.1538 2.6275 22.1538 2.87947L22.1538 4.73592C22.1538 4.98812 21.9215 5.19231 21.6346 5.19231Z" id="Path" fill="#7D8EB0" stroke="none" />
  </g>
</svg>