<?xml version="1.0" encoding="utf-8"?>
<svg width="40px" height="40px" viewBox="0 0 40 40" version="1.1" xmlns:xlink="http://www.w3.org/1999/xlink" xmlns="http://www.w3.org/2000/svg">
  <g id="Group-19">
    <path d="M20 40C31.0457 40 40 31.0457 40 20C40 8.9543 31.0457 0 20 0C8.9543 0 0 8.9543 0 20C0 31.0457 8.9543 40 20 40Z" id="Oval" fill="#F46824" fill-rule="evenodd" stroke="none" />
    <g id="R" transform="translate(15.060402 12.349537)">
      <path d="M5.84852 10.0152L3.25521 10.0152L3.25521 15.7986L0 15.7986L0 0L5.87023 0C7.73655 0 9.17607 0.415943 10.1888 1.24783C11.2015 2.07972 11.7079 3.25521 11.7079 4.77431C11.7079 5.85214 11.4746 6.75094 11.008 7.4707C10.5414 8.19046 9.83435 8.76374 8.88672 9.19054L12.3047 15.6467L12.3047 15.7986L8.81076 15.7986L5.84852 10.0152ZM3.25521 7.37847L5.88108 7.37847C6.6985 7.37847 7.33145 7.1705 7.77995 6.75456C8.22844 6.33861 8.45269 5.76534 8.45269 5.03472C8.45269 4.28964 8.2411 3.7037 7.81793 3.27691C7.39475 2.85012 6.74551 2.63672 5.87023 2.63672L3.25521 2.63672L3.25521 7.37847Z" id="Shape" fill="#FFFFFF" stroke="none" />
    </g>
  </g>
</svg>